<?xml version="1.0" encoding="UTF-8"?>
<svg version="1.1" xmlns="http://www.w3.org/2000/svg" width="2340" height="1792">
<path d="M0 0 C772.2 0 1544.4 0 2340 0 C2340 591.36 2340 1182.72 2340 1792 C1567.8 1792 795.6 1792 0 1792 C0 1200.64 0 609.28 0 0 Z " fill="#ECEAE7" transform="translate(0,0)"/>
<path d="M0 0 C41.25 0 82.5 0 125 0 C125 132.66 125 265.32 125 402 C86.06 402 47.12 402 7 402 C6.67 387.15 6.34 372.3 6 357 C2.535 360.96 2.535 360.96 -1 365 C-9.08140655 374.02423732 -18.73065819 381.97793497 -29.99951172 386.66503906 C-34.67753564 389.00037667 -35.98725971 391.80691746 -37.71875 396.5859375 C-38.0188649 397.34211365 -38.3189798 398.09828979 -38.62818909 398.87738037 C-39.61067664 401.367529 -40.55457027 403.87057508 -41.5 406.375 C-42.18883057 408.13648713 -42.88086214 409.89672553 -43.57592773 411.65576172 C-44.65255404 414.38206708 -45.72690018 417.10906611 -46.79112244 419.84024048 C-50.05968671 428.22567119 -53.53890468 436.5132049 -57.06848145 444.79144287 C-64.77481417 462.88282313 -72.21128926 481.08316687 -79.52148438 499.33789062 C-80.43226125 501.59377787 -81.35756551 503.84394013 -82.30664062 506.08398438 C-82.67466797 506.95861328 -83.04269531 507.83324219 -83.421875 508.734375 C-83.7322168 509.45334961 -84.04255859 510.17232422 -84.36230469 510.91308594 C-85.14113709 513.46188357 -85.32791982 515.34911632 -85 518 C-83.67420957 519.8574662 -83.67420957 519.8574662 -81.73828125 521.390625 C-80.6862854 522.3194751 -80.6862854 522.3194751 -79.61303711 523.26708984 C-78.85385986 523.9214502 -78.09468262 524.57581055 -77.3125 525.25 C-71.04698887 530.87345296 -65.50877606 536.64790005 -60.4375 543.375 C-59.88425049 544.1062207 -59.33100098 544.83744141 -58.76098633 545.59082031 C-55 550.6992156 -55 550.6992156 -55 553 C-50.20443263 548.92760514 -45.65092407 544.71889419 -41.27001953 540.20385742 C-13.64615778 511.74969501 24.01259475 493.56771412 63 487 C63.82193848 486.85191895 64.64387695 486.70383789 65.49072266 486.55126953 C87.97681983 482.56698872 111.42526626 482.57554953 134 486 C134.94198242 486.14002441 135.88396484 486.28004883 136.85449219 486.42431641 C178.1992054 492.87730811 215.28717583 512.80871598 241.23046875 545.83984375 C261.51225686 573.73178952 272.04439385 607.76749048 273.55540466 642.02944946 C273.61863612 643.45646036 273.61863612 643.45646036 273.68314499 644.91229975 C274.13872401 656.11693778 274.1326146 667.31679013 274.11352539 678.52880859 C274.11324248 680.89655557 274.11340328 683.26430263 274.1139679 685.63204956 C274.11425182 691.98592391 274.10842127 698.33977892 274.10139394 704.69364882 C274.09573294 710.68346232 274.09476666 716.67327594 274.09374207 722.66309161 C274.09156631 734.50830815 274.08494675 746.35351771 274.07543945 758.19873047 C274.0662268 769.6889645 274.05917643 781.17919661 274.05493164 792.66943359 C274.05466364 793.38773838 274.05439565 794.10604316 274.05411953 794.84611475 C274.05180594 801.09666606 274.04965349 807.34721742 274.04751682 813.59776878 C274.03814742 840.3985191 274.01821528 867.19925085 274 894 C232.75 894 191.5 894 149 894 C148.96261719 878.29019531 148.92523437 862.58039062 148.88671875 846.39453125 C148.85642881 836.4186111 148.82539448 826.44270238 148.79101562 816.46679688 C148.73663317 800.64641528 148.68521575 784.82606185 148.65356445 769.00561523 C148.63049377 757.48107376 148.59699545 745.95661624 148.55129844 734.43214148 C148.52748796 728.33762531 148.50867977 722.24319166 148.50238609 716.14863014 C148.4962797 710.39565042 148.4760827 704.64288153 148.44572449 698.88998032 C148.43703233 696.79442886 148.43320302 694.69884974 148.43499184 692.60328102 C148.45264607 662.34036021 144.62462114 632.58510758 123.625 609.375 C116.28519391 602.73422306 109.44757575 598.17841876 100 595 C98.84757812 594.60554688 97.69515625 594.21109375 96.5078125 593.8046875 C74.9479306 587.25813081 47.88646299 588.4630185 27.6015625 598.60546875 C26.31378906 599.29576172 26.31378906 599.29576172 25 600 C24.03835938 600.49113281 23.07671875 600.98226562 22.0859375 601.48828125 C4.79639875 610.84786359 -8.30953754 626.49216358 -15 645 C-19.12393445 659.09432045 -22.14052814 673.41564192 -22.15821838 688.12426758 C-22.16315636 689.00906673 -22.16809434 689.89386589 -22.17318195 690.80547714 C-22.18846386 693.75182674 -22.19689217 696.6981547 -22.20532227 699.64453125 C-22.21490812 701.76391284 -22.22491861 703.88329255 -22.23532104 706.00267029 C-22.26229955 711.74373691 -22.28334723 717.48481169 -22.30332303 723.22590637 C-22.32522619 729.23037189 -22.35259366 735.23481245 -22.37937927 741.23925781 C-22.42924767 752.60396163 -22.47420818 763.96867933 -22.51740164 775.33341026 C-22.57606793 790.6945137 -22.64232331 806.0555843 -22.70815182 821.4166584 C-22.81163493 845.61108345 -22.90498498 869.80553678 -23 894 C-64.25 894 -105.5 894 -148 894 C-148.01417969 877.72429688 -148.02835938 861.44859375 -148.04296875 844.6796875 C-148.06303515 834.34373428 -148.08435845 824.00780871 -148.11132812 813.671875 C-148.12543076 808.23763103 -148.13928199 802.80338661 -148.15258789 797.36914062 C-148.15426808 796.68818699 -148.15594827 796.00723335 -148.15767938 795.30564475 C-148.18424212 784.35839638 -148.19343365 773.4112004 -148.19604143 762.46392308 C-148.19911712 751.20204478 -148.22161513 739.94031454 -148.26052457 728.67849362 C-148.28174002 722.36423274 -148.29451442 716.05022431 -148.28615379 709.73592758 C-148.27854075 703.77518447 -148.29472772 697.81494979 -148.32806015 691.85429955 C-148.33620684 689.68337819 -148.33614769 687.51240542 -148.32659721 685.34148979 C-148.22039346 658.51305617 -153.70409545 629.07422675 -173 609 C-193.56532439 590.96579245 -217.9122962 589.68811333 -244 591 C-249.60582672 591.62923536 -254.705562 593.03624481 -260 595 C-261.05316406 595.37382813 -262.10632813 595.74765625 -263.19140625 596.1328125 C-286.58243254 605.15463873 -299.92366158 620.76303261 -310 643 C-321.33089617 669.07289766 -319.74842072 697.21233097 -319.70889878 725.05099726 C-319.70573803 731.00734995 -319.73091119 736.96358778 -319.75285339 742.91989136 C-319.79005784 754.1565337 -319.8024273 765.3930551 -319.8054778 776.62975299 C-319.81107942 791.8438831 -319.85584943 807.05789741 -319.89821911 822.27196121 C-319.96378918 846.18133681 -319.97772277 870.09045401 -320 894 C-361.25 894 -402.5 894 -445 894 C-445 761.67 -445 629.34 -445 493 C-405.73 493 -366.46 493 -326 493 C-325.67 507.85 -325.34 522.7 -325 538 C-321.04 534.04 -317.08 530.08 -313 526 C-288.72750459 506.05329585 -259.06371281 492.22500238 -228 487 C-227.24581787 486.83443604 -226.49163574 486.66887207 -225.71459961 486.49829102 C-216.19551685 484.58665452 -206.69029583 484.66274028 -197.0222168 484.68432617 C-194.09970838 484.6874601 -191.17824143 484.66405389 -188.25585938 484.63867188 C-165.42760957 484.56203754 -144.53863485 488.45947234 -123 496 C-122.83274414 495.46995361 -122.66548828 494.93990723 -122.49316406 494.39379883 C-120.53967758 488.35437905 -118.22392643 482.53036041 -115.75 476.6875 C-114.86048465 474.56909121 -113.97117545 472.45059585 -113.08203125 470.33203125 C-112.59428223 469.17268066 -112.1065332 468.01333008 -111.60400391 466.81884766 C-108.53196154 459.51115771 -105.48677396 452.19221078 -102.4375 444.875 C-102.11566742 444.10308319 -101.79383484 443.33116638 -101.46224976 442.53585815 C-96.25513107 430.04536357 -91.09480293 417.53680505 -86 405 C-87.12656006 405.21221191 -87.12656006 405.21221191 -88.27587891 405.42871094 C-98.67451903 407.16614339 -108.88332219 407.30589239 -119.40332031 407.26074219 C-122.36283981 407.25004396 -125.32174911 407.26068103 -128.28125 407.2734375 C-139.35659333 407.28142503 -150.05415011 406.73991532 -161 405 C-162.22372314 404.80865479 -163.44744629 404.61730957 -164.70825195 404.42016602 C-182.66852756 401.44565771 -200.12579388 394.7990509 -216 386 C-217.52367187 385.20722656 -217.52367187 385.20722656 -219.078125 384.3984375 C-227.59360616 379.77639826 -234.87293395 373.73177455 -242.23632812 367.49365234 C-243.71563728 366.24082656 -245.20789497 365.0033121 -246.703125 363.76953125 C-277.50088384 337.65604692 -290.40919986 296.63095188 -295 258 C-295.08431652 257.2973297 -295.16863304 256.5946594 -295.25550461 255.87069607 C-296.39175255 244.66098388 -296.13197205 233.4007202 -296.11352539 222.14746094 C-296.11324301 219.73192852 -296.11340225 217.31639602 -296.1139679 214.90086365 C-296.11422425 209.04705787 -296.10990902 203.19326861 -296.10353024 197.3394666 C-296.09635153 190.52191575 -296.09488245 183.70436717 -296.09374207 176.88681307 C-296.09155894 164.73101644 -296.08491897 152.57522656 -296.07543945 140.41943359 C-296.06624616 128.61832716 -296.0591862 116.81722257 -296.05493164 105.01611328 C-296.05466364 104.28004101 -296.05439565 103.54396874 -296.05411953 102.78559124 C-296.05180636 96.38180236 -296.04965371 89.97801342 -296.04751682 83.57422447 C-296.03812433 56.04947663 -296.01819885 28.5247467 -296 1 C-254.75 1 -213.5 1 -171 1 C-170.97421875 16.92636719 -170.9484375 32.85273438 -170.921875 49.26171875 C-170.89669735 59.37436112 -170.87051902 69.48698466 -170.83984375 79.59960938 C-170.82377774 84.91625898 -170.80791196 90.23290907 -170.79248047 95.54956055 C-170.79053653 96.21578326 -170.78859259 96.88200597 -170.78658974 97.56841725 C-170.75760611 107.61649021 -170.74022056 117.66453907 -170.72900391 127.71264648 C-170.71594364 139.39541766 -170.68886792 151.07806068 -170.64538693 162.76075965 C-170.62287025 168.93913807 -170.60708341 175.117359 -170.60811615 181.29578209 C-170.60886858 187.12760542 -170.59068624 192.9590819 -170.55883217 198.79081535 C-170.55040997 200.91539168 -170.54853002 203.04000728 -170.55419731 205.16459274 C-170.62003647 233.67499197 -165.65105685 262.11242613 -144.84375 283.18359375 C-129.83178841 297.16480445 -110.55520772 302.42790968 -90.375 302.3125 C-89.32957031 302.30686035 -88.28414062 302.3012207 -87.20703125 302.29541016 C-63.51167109 301.92835013 -42.9140509 294.96868897 -25.37890625 278.53125 C-9.35609515 261.48234755 -0.66732732 234.68071745 -0.7215271 211.40744019 C-0.7128385 210.04092621 -0.7128385 210.04092621 -0.70397437 208.64680588 C-0.68710035 205.6237126 -0.6841088 202.60077313 -0.68115234 199.57763672 C-0.67184546 197.39884574 -0.66167567 195.2200583 -0.65071106 193.04127502 C-0.62348275 187.14743456 -0.6082829 181.25361791 -0.59528303 175.3597312 C-0.57962109 169.19244001 -0.55284065 163.02519722 -0.5272522 156.85794067 C-0.48051862 145.18873072 -0.44374826 133.51951162 -0.41057932 121.85025609 C-0.36516149 106.07496612 -0.30430862 90.29973824 -0.24433136 74.52449799 C-0.15029041 49.68302877 -0.07683368 24.8415422 0 0 Z " fill="#5B95C7" transform="translate(1271,434)"/>
<path d="M0 0 C41.25 0 82.5 0 125 0 C125 132.66 125 265.32 125 402 C86.06 402 47.12 402 7 402 C6.67 387.15 6.34 372.3 6 357 C2.535 360.96 2.535 360.96 -1 365 C-9.08140655 374.02423732 -18.73065819 381.97793497 -29.99951172 386.66503906 C-34.67753564 389.00037667 -35.98725971 391.80691746 -37.71875 396.5859375 C-38.0188649 397.34211365 -38.3189798 398.09828979 -38.62818909 398.87738037 C-39.61067664 401.367529 -40.55457027 403.87057508 -41.5 406.375 C-42.18883057 408.13648713 -42.88086214 409.89672553 -43.57592773 411.65576172 C-44.65255404 414.38206708 -45.72690018 417.10906611 -46.79112244 419.84024048 C-50.05953656 428.22528598 -53.53854409 436.51247429 -57.06793213 444.79034424 C-63.53585011 459.97318136 -69.79907864 475.2349595 -75.95336914 490.54736328 C-79.52149841 499.41663376 -83.19060318 508.23126532 -87 517 C-92.1722591 514.19985626 -97.20965903 511.26055178 -102.1875 508.125 C-108.91307756 503.94337613 -115.86103008 500.42499307 -123 497 C-122.36418479 493.22832366 -121.28125925 489.95813205 -119.8046875 486.43359375 C-119.34360596 485.32636963 -118.88252441 484.21914551 -118.4074707 483.07836914 C-117.90175537 481.87688232 -117.39604004 480.67539551 -116.875 479.4375 C-116.34224561 478.16221441 -115.80994855 476.88673768 -115.27807617 475.61108398 C-114.13200357 472.86436686 -112.98327327 470.11878261 -111.83251953 467.37402344 C-108.97094364 460.54723358 -106.12571551 453.7136209 -103.27865601 446.88076782 C-102.31683873 444.57291068 -101.35438426 442.26532006 -100.3918457 439.95776367 C-95.54197529 428.32648527 -90.7444662 416.67472984 -86 405 C-87.12656006 405.21221191 -87.12656006 405.21221191 -88.27587891 405.42871094 C-98.67451903 407.16614339 -108.88332219 407.30589239 -119.40332031 407.26074219 C-122.36283981 407.25004396 -125.32174911 407.26068103 -128.28125 407.2734375 C-139.35659333 407.28142503 -150.05415011 406.73991532 -161 405 C-162.22372314 404.80865479 -163.44744629 404.61730957 -164.70825195 404.42016602 C-182.66852756 401.44565771 -200.12579388 394.7990509 -216 386 C-217.52367187 385.20722656 -217.52367187 385.20722656 -219.078125 384.3984375 C-227.59360616 379.77639826 -234.87293395 373.73177455 -242.23632812 367.49365234 C-243.71563728 366.24082656 -245.20789497 365.0033121 -246.703125 363.76953125 C-277.50088384 337.65604692 -290.40919986 296.63095188 -295 258 C-295.08431652 257.2973297 -295.16863304 256.5946594 -295.25550461 255.87069607 C-296.39175255 244.66098388 -296.13197205 233.4007202 -296.11352539 222.14746094 C-296.11324301 219.73192852 -296.11340225 217.31639602 -296.1139679 214.90086365 C-296.11422425 209.04705787 -296.10990902 203.19326861 -296.10353024 197.3394666 C-296.09635153 190.52191575 -296.09488245 183.70436717 -296.09374207 176.88681307 C-296.09155894 164.73101644 -296.08491897 152.57522656 -296.07543945 140.41943359 C-296.06624616 128.61832716 -296.0591862 116.81722257 -296.05493164 105.01611328 C-296.05466364 104.28004101 -296.05439565 103.54396874 -296.05411953 102.78559124 C-296.05180636 96.38180236 -296.04965371 89.97801342 -296.04751682 83.57422447 C-296.03812433 56.04947663 -296.01819885 28.5247467 -296 1 C-254.75 1 -213.5 1 -171 1 C-170.97421875 16.92636719 -170.9484375 32.85273438 -170.921875 49.26171875 C-170.89669735 59.37436112 -170.87051902 69.48698466 -170.83984375 79.59960938 C-170.82377774 84.91625898 -170.80791196 90.23290907 -170.79248047 95.54956055 C-170.79053653 96.21578326 -170.78859259 96.88200597 -170.78658974 97.56841725 C-170.75760611 107.61649021 -170.74022056 117.66453907 -170.72900391 127.71264648 C-170.71594364 139.39541766 -170.68886792 151.07806068 -170.64538693 162.76075965 C-170.62287025 168.93913807 -170.60708341 175.117359 -170.60811615 181.29578209 C-170.60886858 187.12760542 -170.59068624 192.9590819 -170.55883217 198.79081535 C-170.55040997 200.91539168 -170.54853002 203.04000728 -170.55419731 205.16459274 C-170.62003647 233.67499197 -165.65105685 262.11242613 -144.84375 283.18359375 C-129.83178841 297.16480445 -110.55520772 302.42790968 -90.375 302.3125 C-89.32957031 302.30686035 -88.28414062 302.3012207 -87.20703125 302.29541016 C-63.51167109 301.92835013 -42.9140509 294.96868897 -25.37890625 278.53125 C-9.35609515 261.48234755 -0.66732732 234.68071745 -0.7215271 211.40744019 C-0.7128385 210.04092621 -0.7128385 210.04092621 -0.70397437 208.64680588 C-0.68710035 205.6237126 -0.6841088 202.60077313 -0.68115234 199.57763672 C-0.67184546 197.39884574 -0.66167567 195.2200583 -0.65071106 193.04127502 C-0.62348275 187.14743456 -0.6082829 181.25361791 -0.59528303 175.3597312 C-0.57962109 169.19244001 -0.55284065 163.02519722 -0.5272522 156.85794067 C-0.48051862 145.18873072 -0.44374826 133.51951162 -0.41057932 121.85025609 C-0.36516149 106.07496612 -0.30430862 90.29973824 -0.24433136 74.52449799 C-0.15029041 49.68302877 -0.07683368 24.8415422 0 0 Z " fill="#204072" transform="translate(1271,434)"/>
<path d="M0 0 C1.50433594 0.01353516 1.50433594 0.01353516 3.0390625 0.02734375 C4.19535156 0.04474609 4.19535156 0.04474609 5.375 0.0625 C5.375 0.3925 5.375 0.7225 5.375 1.0625 C4.27542969 1.29324219 3.17585938 1.52398438 2.04296875 1.76171875 C-6.69779073 3.6612807 -14.68826917 5.80812627 -22.625 10.0625 C-24.06746094 10.79919922 -24.06746094 10.79919922 -25.5390625 11.55078125 C-42.82860125 20.91036359 -55.93453754 36.55466358 -62.625 55.0625 C-66.74893445 69.15682045 -69.76552814 83.47814192 -69.78321838 98.18676758 C-69.78815636 99.07156673 -69.79309434 99.95636589 -69.79818195 100.86797714 C-69.81346386 103.81432674 -69.82189217 106.7606547 -69.83032227 109.70703125 C-69.83990812 111.82641284 -69.84991861 113.94579255 -69.86032104 116.06517029 C-69.88729955 121.80623691 -69.90834723 127.54731169 -69.92832303 133.28840637 C-69.95022619 139.29287189 -69.97759366 145.29731245 -70.00437927 151.30175781 C-70.05424767 162.66646163 -70.09920818 174.03117933 -70.14240164 185.39591026 C-70.20106793 200.7570137 -70.26732331 216.1180843 -70.33315182 231.4791584 C-70.43663493 255.67358345 -70.52998498 279.86803678 -70.625 304.0625 C-111.875 304.0625 -153.125 304.0625 -195.625 304.0625 C-195.66238281 287.69398438 -195.69976563 271.32546875 -195.73828125 254.4609375 C-195.76855863 244.08853321 -195.79958357 233.71614008 -195.83398438 223.34375 C-195.85201542 217.89322983 -195.86989616 212.44270923 -195.88745117 206.9921875 C-195.88965886 206.30912387 -195.89186655 205.62606024 -195.89414114 204.92229772 C-195.92943909 193.91794386 -195.95433803 182.91359007 -195.97534702 171.90920071 C-195.99716708 160.60218187 -196.03049565 149.29524683 -196.07370156 137.98828566 C-196.09758752 131.64304063 -196.11634665 125.29787605 -196.12261391 118.95258713 C-196.12868563 112.97227676 -196.14876095 106.99217213 -196.17927551 101.0119381 C-196.18802231 98.82475529 -196.19178534 96.63754556 -196.19000816 94.45034599 C-196.18416228 83.92982351 -196.27726128 74.04564758 -198.98395061 63.81836891 C-199.6101234 61.12645445 -199.74385378 58.81406735 -199.625 56.0625 C-197.1779825 58.5095175 -196.89236545 60.15881399 -196.0625 63.5 C-195.81371094 64.46808594 -195.56492187 65.43617187 -195.30859375 66.43359375 C-193.06018911 78.3694104 -193.48949135 90.50520987 -193.51147461 102.59838867 C-193.511757 104.77732339 -193.51159773 106.95625821 -193.5110321 109.13519287 C-193.51074617 115.02485792 -193.51660992 120.91450244 -193.52360606 126.80416274 C-193.52987358 132.96875004 -193.53044608 139.13333786 -193.53163147 145.29792786 C-193.53473478 156.96004407 -193.54293467 168.62215088 -193.55298096 180.28426296 C-193.56417318 193.56600569 -193.56966038 206.84774767 -193.57467639 220.12949407 C-193.58511813 247.44050126 -193.60269817 274.7515001 -193.625 302.0625 C-185.12937164 302.0860807 -176.63375783 302.10364044 -168.13810444 302.11431217 C-164.18963242 302.11944417 -160.24118339 302.1263558 -156.29272461 302.13793945 C-151.71207557 302.15105923 -147.1314488 302.15840138 -142.55078125 302.16015625 C-141.79865482 302.16051502 -141.0465284 302.16087379 -140.27161026 302.16124344 C-128.22602052 302.15758447 -116.21026242 301.87050588 -104.17658997 301.3271637 C-103.0589476 301.27906052 -101.94130524 301.23095734 -100.78979492 301.18139648 C-99.81121017 301.13466293 -98.83262543 301.08792938 -97.8243866 301.03977966 C-95.625 301.0625 -95.625 301.0625 -94.625 302.0625 C-92.91936222 302.21990605 -91.20772756 302.31343392 -89.49609375 302.37890625 C-88.56466553 302.41701416 -87.6332373 302.45512207 -86.67358398 302.49438477 C-84.88609741 302.55903931 -84.88609741 302.55903931 -83.0625 302.625 C-81.02220443 302.70271972 -78.98192202 302.78078515 -76.94165039 302.85913086 C-75.93816055 302.89751572 -74.93467072 302.93590057 -73.90077209 302.97544861 C-73.1497673 303.00417557 -72.39876251 303.03290253 -71.625 303.0625 C-71.65660217 302.18783081 -71.68820435 301.31316162 -71.72076416 300.4119873 C-73.0724308 260.42544343 -72.64896783 220.41961918 -72.42126989 180.41844082 C-72.37743299 172.50149425 -72.34919637 164.58454398 -72.32405448 156.66751909 C-72.29871276 148.9210958 -72.26207275 141.17477666 -72.21696877 133.42844343 C-72.19049868 128.84759722 -72.16833473 124.2668417 -72.15795135 119.68592834 C-72.09144959 93.03401694 -70.15315457 69.45046247 -61.625 44.0625 C-60.965 44.0625 -60.305 44.0625 -59.625 44.0625 C-59.51027344 43.49015625 -59.39554688 42.9178125 -59.27734375 42.328125 C-58.56317644 39.84778344 -57.55192128 37.99881303 -56.1875 35.8125 C-55.75566406 35.10609375 -55.32382813 34.3996875 -54.87890625 33.671875 C-54.46511719 33.14078125 -54.05132813 32.6096875 -53.625 32.0625 C-52.965 32.0625 -52.305 32.0625 -51.625 32.0625 C-51.3775 31.52625 -51.13 30.99 -50.875 30.4375 C-49.30644423 27.45724404 -47.65754003 24.75262652 -45.625 22.0625 C-43.5 21.4375 -43.5 21.4375 -41.625 21.0625 C-41.33625 20.464375 -41.0475 19.86625 -40.75 19.25 C-39.0975425 16.0368882 -36.71070645 14.82576083 -33.625 13.0625 C-32.635 13.0625 -31.645 13.0625 -30.625 13.0625 C-30.625 12.4025 -30.625 11.7425 -30.625 11.0625 C-24.875 8.0625 -24.875 8.0625 -22.625 8.0625 C-22.295 7.0725 -21.965 6.0825 -21.625 5.0625 C-18.53515625 3.9296875 -18.53515625 3.9296875 -14.6875 2.9375 C-3.34710953 -0.03891988 -3.34710953 -0.03891988 0 0 Z " fill="#6A8FB2" transform="translate(1318.625,1023.9375)"/>
<path d="M0 0 C39.27 0 78.54 0 119 0 C119.33 14.85 119.66 29.7 120 45 C120.33 45.66 120.66 46.32 121 47 C120.01 47 119.02 47 118 47 C118 31.82 118 16.64 118 1 C79.39 1 40.78 1 1 1 C1.33 132.67 1.66 264.34 2 400 C61.895 399.505 61.895 399.505 123 399 C122.98839844 390.31300781 122.97679687 381.62601563 122.96484375 372.67578125 C122.95882839 367.00162729 122.95300339 361.32747551 122.94873047 355.65332031 C122.94818405 354.9294225 122.94763763 354.20552468 122.94707465 353.45969057 C122.8794955 260.9066225 122.8794955 260.9066225 123.34743118 217.41958237 C123.37490498 214.75920114 123.39873817 212.09880954 123.42160034 209.43838501 C123.45761681 205.32689555 123.50351952 201.21564216 123.55800056 197.10435677 C123.57618606 195.64299007 123.59145801 194.18158327 123.60336113 192.7201519 C123.74316574 176.4346345 123.74316574 176.4346345 126 170 C126.66 169.67 127.32 169.34 128 169 C127.85711146 170.70858216 127.71053911 172.4168564 127.5625 174.125 C127.44068359 175.55199219 127.44068359 175.55199219 127.31640625 177.0078125 C127 180 127 180 126.49011326 182.63177681 C125.89184179 186.74329958 125.84673581 190.73506247 125.84178162 194.88375854 C125.83684364 195.76684885 125.83190566 196.64993916 125.82681805 197.55978978 C125.81148686 200.5123515 125.8030943 203.46489155 125.79467773 206.41748047 C125.78509577 208.53656707 125.7750855 210.65565178 125.76467896 212.7747345 C125.73765836 218.52418368 125.71663337 224.27364104 125.69667697 230.0231185 C125.67479989 236.0329344 125.64741962 242.04272515 125.62062073 248.05252075 C125.57071715 259.43145746 125.52576964 270.81040815 125.48259836 282.18937218 C125.42397101 297.56681058 125.35769666 312.9442159 125.29184818 328.32162476 C125.18831002 352.54772754 125.09499655 376.77385873 125 401 C83.75 401 42.5 401 0 401 C0 268.67 0 136.34 0 0 Z " fill="#7798BA" transform="translate(826,927)"/>
<path d="M0 0 C0.99 0.33 1.98 0.66 3 1 C3 1.66 3 2.32 3 3 C3.99 3.33 4.98 3.66 6 4 C7.60546875 6.87109375 7.60546875 6.87109375 9.1875 10.4375 C9.71730469 11.61183594 10.24710938 12.78617188 10.79296875 13.99609375 C12 17 12 17 12 19 C12.66 19 13.32 19 14 19 C14.226875 20.134375 14.45375 21.26875 14.6875 22.4375 C15.39615806 25.68294851 16.23986548 28.85642092 17.2109375 32.03125 C17.43177002 32.75513916 17.65260254 33.47902832 17.88012695 34.22485352 C18.32358299 35.66279343 18.77482412 37.09836364 19.23510742 38.53100586 C22.78459543 50.05439108 22.14356047 62.07779845 22.12939453 74.00610352 C22.13075137 75.92758212 22.1325329 77.84906047 22.13470459 79.77053833 C22.13924982 84.97187862 22.13750011 90.17319899 22.1343255 95.37453961 C22.13178138 100.8467751 22.13414565 106.31900895 22.13571167 111.79124451 C22.13752969 120.99519148 22.13513908 130.19913042 22.13037109 139.40307617 C22.12495346 149.9819194 22.12667434 160.56074329 22.1321975 171.13958603 C22.13676824 180.26536998 22.13735925 189.39114818 22.13475883 198.5169329 C22.13321455 203.94742933 22.13295022 209.37791674 22.13629532 214.80841255 C22.15941732 258.068592 22.15941732 258.068592 21 279 C25.0935943 278.88089162 29.1870057 278.75759223 33.28027344 278.62768555 C34.6731259 278.58434154 36.06603131 278.54266604 37.45898438 278.50268555 C39.45976651 278.44497068 41.46035859 278.38078131 43.4609375 278.31640625 C44.66540527 278.27974854 45.86987305 278.24309082 47.11083984 278.20532227 C49.93996367 278.18947013 49.93996367 278.18947013 52 277 C53.83513267 277.08889295 55.66716365 277.24426747 57.49511719 277.42919922 C66.02957542 278.15772914 74.51977017 278.14486013 83.078125 278.1328125 C84.78350844 278.1334876 86.48889179 278.13445935 88.1942749 278.13571167 C91.73743624 278.13717413 95.28057212 278.13507804 98.82373047 278.13037109 C103.3734294 278.12462199 107.92306999 278.1279943 112.47276688 278.13394356 C115.9796188 278.13754405 119.48645669 278.13641387 122.99330902 278.13381577 C124.67271685 278.13314777 126.35212594 278.13397048 128.03153229 278.13629532 C130.36252781 278.13881904 132.69342586 278.13498771 135.02441406 278.12939453 C135.72040207 278.13141876 136.41639008 278.13344299 137.13346863 278.13552856 C140.34518556 278.39164786 140.34518556 278.39164786 143 277 C143.09634644 275.65515348 143.12371962 274.30528528 143.12304783 272.95699215 C143.12503888 272.08066881 143.12702993 271.20434547 143.12908131 270.30146688 C143.12471205 268.84089411 143.12471205 268.84089411 143.12025452 267.35081482 C143.12110894 266.32498875 143.12196337 265.29916268 143.12284368 264.24225098 C143.12450157 260.77663634 143.11897209 257.31106923 143.11352539 253.84545898 C143.11324356 251.37243654 143.11340117 248.899414 143.1139679 246.4263916 C143.11419622 241.08761919 143.1113448 235.74886181 143.10573006 230.41009331 C143.09761727 222.69104705 143.09500006 214.9720067 143.09374207 207.25295664 C143.0915512 194.73056475 143.08489017 182.20817937 143.07543945 169.68579102 C143.06626623 157.51847364 143.05918496 145.35115803 143.05493164 133.18383789 C143.05466892 132.43436472 143.05440619 131.68489156 143.05413551 130.91270708 C143.05283051 127.15297584 143.05156679 123.39324459 143.05032361 119.63351333 C143.03994991 88.42233749 143.02225653 57.21116973 143 26 C143.33 26 143.66 26 144 26 C145.20630382 38.5376724 145.13465989 51.03821004 145.11352539 63.62060547 C145.11324289 65.98717243 145.11340248 68.35373948 145.1139679 70.7203064 C145.11425342 77.10771116 145.1083964 83.49509694 145.10139394 89.88249731 C145.09575628 95.89271609 145.09476875 101.90293422 145.09374207 107.91315509 C145.09156055 119.80717856 145.08492502 131.70119512 145.07543945 143.59521484 C145.06624195 155.14013638 145.05918407 166.68505601 145.05493164 178.22998047 C145.05466364 178.95042923 145.05439565 179.67087799 145.05411953 180.41315854 C145.05180627 186.68131705 145.04965367 192.94947562 145.04751682 199.2176342 C145.03812938 226.14509598 145.01820243 253.0725394 145 280 C103.75 280 62.5 280 20 280 C19.96261719 264.29019531 19.92523437 248.58039063 19.88671875 232.39453125 C19.85642881 222.4186111 19.82539448 212.44270238 19.79101562 202.46679688 C19.73663317 186.64641528 19.68521575 170.82606185 19.65356445 155.00561523 C19.63049377 143.48107376 19.59699545 131.95661624 19.55129844 120.43214148 C19.52748796 114.33762531 19.50867977 108.24319166 19.50238609 102.14863014 C19.4962797 96.39565042 19.4760827 90.64288153 19.44572449 84.88998032 C19.43703233 82.79442886 19.43320302 80.69884974 19.43499184 78.60328102 C19.45190758 49.60629213 14.53424025 25.17538043 0 0 Z " fill="#668EB3" transform="translate(1400,1048)"/>
<path d="M0 0 C40.92 0 81.84 0 124 0 C124 73.26 124 146.52 124 222 C123.67 222 123.34 222 123 222 C123 149.07 123 76.14 123 1 C120.69 1.33 118.38 1.66 116 2 C114.30570987 2.07813286 112.60907888 2.11812874 110.91299438 2.11352539 C109.96243164 2.1134549 109.0118689 2.1133844 108.03250122 2.11331177 C107.01195648 2.10814545 105.99141174 2.10297913 104.93994141 2.09765625 C103.84812561 2.09619598 102.75630981 2.09473572 101.63140869 2.0932312 C99.27043833 2.08943686 96.90947079 2.08333266 94.54851151 2.07516479 C90.81752197 2.06238339 87.08656803 2.05588165 83.3555603 2.05102539 C75.44535831 2.03961285 67.53518265 2.02038923 59.625 2 C50.43890152 1.976367 41.2528155 1.95605403 32.06669235 1.94406128 C28.38107855 1.93755213 24.69551517 1.92504806 21.00991821 1.91235352 C18.76784307 1.90872367 16.52576745 1.90537161 14.28369141 1.90234375 C13.25100128 1.89717743 12.21831116 1.89201111 11.15432739 1.88668823 C10.22068359 1.88661774 9.28703979 1.88654724 8.32510376 1.88647461 C7.50919077 1.884254 6.69327778 1.88203339 5.85264015 1.87974548 C3.98358792 1.79647205 3.98358792 1.79647205 3 3 C2.93966808 6.37104631 2.97982943 9.72729477 3.0390625 13.09765625 C3.07453123 16.34304525 3.03451899 18.89644304 2 22 C1.91309612 24.98725067 1.88459181 27.95052207 1.90234375 30.9375 C1.90378136 31.85957623 1.90521896 32.78165245 1.90670013 33.73167038 C1.91048205 35.75144478 1.91658927 37.77121581 1.92469788 39.79097748 C1.9377133 43.05346657 1.9446684 46.3159201 1.95007324 49.57843018 C1.95836854 54.2712484 1.96907335 58.96405176 1.98168945 63.65686035 C2.01375134 75.95351493 2.02617071 88.2501821 2.03125 100.546875 C2.03179886 101.78566154 2.03234772 103.02444809 2.03291321 104.30077362 C2.03882314 128.95306148 1.8316201 153.60012806 1.5 178.25 C1.48797546 179.15024902 1.47595093 180.05049805 1.46356201 180.97802734 C1.32044117 191.65219656 1.16715217 202.32617827 1 213 C0.67 213 0.34 213 0 213 C0 142.71 0 72.42 0 0 Z " fill="#263A60" transform="translate(975,435)"/>
<path d="M0 0 C1.50573326 -0.00845947 1.50573326 -0.00845947 3.04188538 -0.01708984 C4.13193375 -0.01304138 5.22198212 -0.00899292 6.34506226 -0.00482178 C8.07994148 -0.01007874 8.07994148 -0.01007874 9.84986877 -0.01544189 C13.67173264 -0.02424253 17.49341136 -0.01841657 21.3152771 -0.01165771 C23.9689558 -0.01300466 26.62262886 -0.01494228 29.27630615 -0.01745605 C34.83619189 -0.02109124 40.39602444 -0.01630729 45.9559021 -0.0067749 C52.38446736 0.00411953 58.81290586 0.00057516 65.24146807 -0.01042771 C70.76344947 -0.01950058 76.28539269 -0.0207862 81.80737913 -0.01555037 C85.10445616 -0.01243203 88.40146048 -0.01280287 91.69853592 -0.01862335 C95.37116407 -0.02368464 99.04354625 -0.01598419 102.71615601 -0.00482178 C103.81025284 -0.00887024 104.90434967 -0.0129187 106.03160095 -0.01708984 C107.02978348 -0.0114502 108.027966 -0.00581055 109.05639648 0 C109.92468393 0.00075405 110.79297138 0.0015081 111.68757057 0.002285 C113.9012146 0.25396729 113.9012146 0.25396729 116.9012146 2.25396729 C75.6512146 2.25396729 34.4012146 2.25396729 -8.0987854 2.25396729 C-8.0987854 85.74396729 -8.0987854 169.23396729 -8.0987854 255.25396729 C-8.4287854 255.25396729 -8.7587854 255.25396729 -9.0987854 255.25396729 C-11.77270436 229.87808798 -11.27729888 204.45948703 -11.09964418 178.98089123 C-11.05850491 172.74971092 -11.02971434 166.51847263 -10.99951172 160.28723145 C-10.94071788 148.53354578 -10.87111161 136.77995107 -10.79744089 125.02635026 C-10.73894255 115.63300684 -10.68550834 106.23964688 -10.63589478 96.84625244 C-10.63238233 96.18153469 -10.62886989 95.51681695 -10.62525101 94.83195624 C-10.60765189 91.49611835 -10.59014626 88.16027999 -10.57267499 84.82444143 C-10.42825046 57.30086627 -10.26865104 29.77739639 -10.0987854 2.25396729 C-6.58554159 0.66893213 -3.84705581 0.00333802 0 0 Z " fill="#DDE3F0" transform="translate(983.0987854003906,431.74603271484375)"/>
<path d="M0 0 C0.33 0 0.66 0 1 0 C0.85711146 1.70858216 0.71053911 3.4168564 0.5625 5.125 C0.44068359 6.55199219 0.44068359 6.55199219 0.31640625 8.0078125 C0 11 0 11 -0.50988674 13.63177681 C-1.10815821 17.74329958 -1.15326419 21.73506247 -1.15821838 25.88375854 C-1.16315636 26.76684885 -1.16809434 27.64993916 -1.17318195 28.55978978 C-1.18851314 31.5123515 -1.1969057 34.46489155 -1.20532227 37.41748047 C-1.21490423 39.53656707 -1.2249145 41.65565178 -1.23532104 43.7747345 C-1.26234164 49.52418368 -1.28336663 55.27364104 -1.30332303 61.0231185 C-1.32520011 67.0329344 -1.35258038 73.04272515 -1.37937927 79.05252075 C-1.42928285 90.43145746 -1.47423036 101.81040815 -1.51740164 113.18937218 C-1.57602899 128.56681058 -1.64230334 143.9442159 -1.70815182 159.32162476 C-1.81168998 183.54772754 -1.90500345 207.77385873 -2 232 C-42.92 232 -83.84 232 -126 232 C-126 228.04 -126 224.08 -126 220 C-125.67 220 -125.34 220 -125 220 C-125 223.63 -125 227.26 -125 231 C-65.105 230.505 -65.105 230.505 -4 230 C-4.01160156 221.31300781 -4.02320313 212.62601563 -4.03515625 203.67578125 C-4.04117161 198.00162729 -4.04699661 192.32747551 -4.05126953 186.65332031 C-4.05181595 185.9294225 -4.05236237 185.20552468 -4.05292535 184.45969057 C-4.1205045 91.9066225 -4.1205045 91.9066225 -3.65256882 48.41958237 C-3.62509502 45.75920114 -3.60126183 43.09880954 -3.57839966 40.43838501 C-3.54238319 36.32689555 -3.49648048 32.21564216 -3.44199944 28.10435677 C-3.42381394 26.64299007 -3.40854199 25.18158327 -3.39663887 23.7201519 C-3.22065897 3.22065897 -3.22065897 3.22065897 0 0 Z " fill="#668EB4" transform="translate(953,1096)"/>
<path d="M0 0 C0.66 0 1.32 0 2 0 C2.20147132 1.60247192 2.38512918 3.2071818 2.5625 4.8125 C2.66691406 5.70582031 2.77132813 6.59914063 2.87890625 7.51953125 C2.98133022 10.46339443 2.82554554 13.07599079 2.51586914 15.99145508 C1.95911146 21.87897725 1.85521564 27.70672061 1.8671875 33.6171875 C1.86623077 34.67737091 1.86527405 35.73755432 1.86428833 36.8298645 C1.863613 39.0499884 1.86542168 41.27011436 1.86962891 43.49023438 C1.87501867 46.88676347 1.86964545 50.28316228 1.86328125 53.6796875 C1.86394152 55.84635446 1.86522162 58.01302133 1.8671875 60.1796875 C1.86516327 61.19118866 1.86313904 62.20268982 1.86105347 63.24484253 C1.86420563 64.18997711 1.86735779 65.13511169 1.87060547 66.10888672 C1.87140106 66.93508514 1.87219666 67.76128357 1.87301636 68.61251831 C1.9448858 71.06136964 1.9448858 71.06136964 2.53933716 73.66116333 C3 76 3 76 2.5 78.3125 C1.92076912 81.42586598 2.29528328 83.84614211 2.84375 86.9375 C3 89 3 89 2.5390625 91.2265625 C1.81656805 94.94374408 1.85522645 98.60484377 1.875 102.375 C1.87113281 103.10460938 1.86726563 103.83421875 1.86328125 104.5859375 C1.8693885 108.00599954 2.02413282 111.14975575 2.5703125 114.5390625 C3 118 3 118 2.53515625 121.29418945 C1.66330542 127.74837527 1.8563262 134.25398011 1.8671875 140.75390625 C1.86651258 142.18301917 1.86554099 143.61213198 1.86428833 145.04124451 C1.86282069 148.02417096 1.86493608 151.0070673 1.86962891 153.98999023 C1.87533083 157.79826277 1.87203832 161.60646488 1.86605644 165.41473484 C1.86242999 168.36167423 1.86359889 171.30859713 1.86618423 174.25553703 C1.86684747 175.65925035 1.86604635 177.0629652 1.86370468 178.46667671 C1.86114323 180.43294366 1.86574431 182.39921591 1.87060547 184.36547852 C1.87140106 185.48052261 1.87219666 186.59556671 1.87301636 187.74440002 C1.94573228 191.11138592 1.94573228 191.11138592 2.57058716 194.85215759 C2.7122934 195.89094559 2.85399963 196.92973358 3 198 C2.67 198.33 2.34 198.66 2 199 C1.84193469 200.92478813 1.748865 202.8549921 1.68359375 204.78515625 C1.62075195 206.53989258 1.62075195 206.53989258 1.55664062 208.33007812 C1.51732422 209.56177734 1.47800781 210.79347656 1.4375 212.0625 C1.39431641 213.29806641 1.35113281 214.53363281 1.30664062 215.80664062 C1.20015802 218.87097335 1.09814576 221.93539073 1 225 C0.67 225 0.34 225 0 225 C0 150.75 0 76.5 0 0 Z " fill="#E5F0FA" transform="translate(1546,1103)"/>
<path d="M0 0 C1.02165961 3.06497883 0.9831418 4.3841348 0.5625 7.5 C0.22541099 10.06016973 0 12.40899698 0 15 C-0.31614194 16.46215645 -0.6519842 17.92010061 -1 19.375 C-2.35884429 25.92829159 -3.1862825 33.59380785 -1.42578125 40.1328125 C-1 42 -1 42 -1.46629333 43.67924595 C-2.18867869 46.82044475 -2.11919518 49.77560102 -2.11352539 52.99925232 C-2.11367425 53.70403577 -2.11382311 54.40881923 -2.11397648 55.13495976 C-2.11328199 57.49682326 -2.10543936 59.858609 -2.09765625 62.22045898 C-2.09573697 63.91421973 -2.09427322 65.60798104 -2.0932312 67.30174255 C-2.09006858 70.95105983 -2.08379707 74.600354 -2.07516479 78.2496624 C-2.06163634 84.02940065 -2.05574619 89.80913122 -2.05102539 95.58888245 C-2.03897672 108.91320647 -2.01698707 122.23751066 -1.99479675 135.56182098 C-1.97458176 147.75047745 -1.95650826 159.93912695 -1.94658184 172.12779671 C-1.94162265 177.86281545 -1.93179634 183.59779829 -1.91815186 189.33280265 C-1.910641 192.91817526 -1.90736626 196.50354308 -1.9051857 200.0889225 C-1.90332865 201.7395647 -1.89975816 203.39020609 -1.89425278 205.04084015 C-1.86403343 214.40426616 -2.10015502 223.66976383 -3 233 C-3.33 233 -3.66 233 -4 233 C-4.04670964 204.30608141 -4.08198378 175.61216851 -4.10362434 146.91821957 C-4.11393926 133.59528493 -4.12800375 120.27238184 -4.15087891 106.94946289 C-4.17080614 95.33794262 -4.18371487 83.72643945 -4.18817699 72.11490256 C-4.19078549 65.96604995 -4.19692117 59.81724628 -4.21146011 53.66840935 C-4.22503343 47.88107893 -4.22922312 42.0938176 -4.22621536 36.30647278 C-4.22676563 34.18244616 -4.23074453 32.05841723 -4.23841095 29.93440437 C-4.24836817 27.03345019 -4.24596594 24.13275654 -4.24050903 21.23179626 C-4.24633472 20.39228658 -4.2521604 19.5527769 -4.25816262 18.68782753 C-4.22339494 11.84475335 -2.68141554 6.32047949 0 0 Z " fill="#E3EFFA" transform="translate(956,1095)"/>
<path d="M0 0 C0.33 0 0.66 0 1 0 C1.35061298 5.60980761 0.92406886 9.79104429 -1.26953125 14.9609375 C-2.30450441 17.85000695 -2.5513088 20.68105084 -2.7890625 23.7265625 C-3 26 -3 26 -3.47840881 28.74362659 C-5.23803691 39.72925343 -5.13871094 50.89753145 -5.09765625 61.9934082 C-5.09573099 63.5446925 -5.09427007 65.09597743 -5.0932312 66.64726257 C-5.09009424 69.96457922 -5.08386085 73.28186973 -5.07516479 76.59917641 C-5.06145022 81.89173293 -5.05570586 87.18428127 -5.05102539 92.47685242 C-5.03904697 104.70122235 -5.01721367 116.92557068 -4.99479675 129.14992523 C-4.9743986 140.29673192 -4.95634664 151.44353002 -4.94658184 162.59035176 C-4.9425064 166.96719753 -4.93641497 171.34401714 -4.92483521 175.72084999 C-4.85906266 200.82910354 -5.27388575 225.90216628 -6 251 C-6.33 251 -6.66 251 -7 251 C-7.14069484 222.37352422 -7.24622678 193.74710091 -7.31087303 165.12034798 C-7.3416987 151.82586713 -7.38366127 138.53165682 -7.45263672 125.23730469 C-7.51278641 113.63841813 -7.55123099 102.03968808 -7.56453097 90.44064987 C-7.5722949 84.30946 -7.59030178 78.17871751 -7.63438034 72.04767227 C-8.02183912 16.04367823 -8.02183912 16.04367823 0 0 Z " fill="#E6F1FA" transform="translate(1256,1077)"/>
<path d="M0 0 C38.28 0 76.56 0 116 0 C116 41.91 116 83.82 116 127 C115.67 127 115.34 127 115 127 C114.84612164 111.0146568 114.69808773 95.02927188 114.5570364 79.04381084 C114.4914091 71.62170783 114.42385992 64.19963154 114.35180664 56.77758789 C114.28901951 50.30952934 114.22981764 43.84144968 114.17494446 37.37331897 C114.14575621 33.94761063 114.11475681 30.52194004 114.07946587 27.09628868 C114.04016375 23.27476391 114.0088651 19.45319671 113.97827148 15.6315918 C113.96532547 14.49223679 113.95237946 13.35288177 113.93904114 12.17900085 C113.9284819 10.62040344 113.9284819 10.62040344 113.91770935 9.03031921 C113.90941321 8.1260403 113.90111708 7.22176138 113.89256954 6.29008007 C114 4 114 4 115 1 C114.46375 1.165 113.9275 1.33 113.375 1.5 C110.53222057 2.09847988 107.89941788 2.06168974 105 2 C104.01 2 103.02 2 102 2 C100.37384766 1.98259766 100.37384766 1.98259766 98.71484375 1.96484375 C96.84505859 1.95130859 96.84505859 1.95130859 94.9375 1.9375 C93.68839844 1.92589844 92.43929688 1.91429687 91.15234375 1.90234375 C88.0976498 1.77646508 88.0976498 1.77646508 86 3 C85.01 2.67 84.02 2.34 83 2 C81.57779056 1.90823338 80.15172782 1.86933522 78.7265625 1.8671875 C77.4890625 1.86525391 77.4890625 1.86525391 76.2265625 1.86328125 C75.36804687 1.86714844 74.50953125 1.87101562 73.625 1.875 C72.34882812 1.86919922 72.34882812 1.86919922 71.046875 1.86328125 C67.68440076 1.86851875 64.57232213 1.88028792 61.2734375 2.5703125 C59 3 59 3 56.46044922 2.53076172 C52.06180531 1.85610024 47.80120284 1.89552965 43.359375 1.9375 C42.43715149 1.94128662 41.51492798 1.94507324 40.5647583 1.94897461 C36.64191109 1.96521863 32.71917059 1.99327076 28.79638672 2.02050781 C25.92155451 2.03874244 23.04673989 2.05074467 20.171875 2.0625 C19.30173767 2.07079834 18.43160034 2.07909668 17.53509521 2.08764648 C11.63210828 2.11083815 5.86135955 1.69364276 0 1 C0 0.67 0 0.34 0 0 Z " fill="#283C61" transform="translate(1279,435)"/>
<path d="M0 0 C1.98 0 3.96 0 6 0 C5.026056 0.97812417 5.026056 0.97812417 4.03243637 1.97600842 C1.45416546 5.81212828 1.43678555 8.92049616 1.48101807 13.38386536 C1.47351681 14.22526571 1.46601556 15.06666607 1.458287 15.93356341 C1.43799665 18.75128855 1.4461151 21.56821004 1.45410156 24.38598633 C1.44536729 26.40641069 1.43488202 28.42682814 1.42277527 30.44723511 C1.39487696 35.93235616 1.39151144 41.41725193 1.39249516 46.90243363 C1.38936936 52.63468889 1.36375809 58.36684218 1.34051514 64.0990448 C1.29992609 74.9538709 1.27960757 85.80863688 1.26654124 96.66352719 C1.25068106 109.02138223 1.21226955 121.37913482 1.17194796 133.73693049 C1.08950922 159.15791929 1.03544192 184.57890531 1 210 C0.67 210 0.34 210 0 210 C0 140.7 0 71.4 0 0 Z " fill="#1E3253" transform="translate(1272,435)"/>
<path d="M0 0 C1.50433594 0.01353516 1.50433594 0.01353516 3.0390625 0.02734375 C3.80992188 0.03894531 4.58078125 0.05054688 5.375 0.0625 C5.375 0.3925 5.375 0.7225 5.375 1.0625 C4.27542969 1.29324219 3.17585938 1.52398438 2.04296875 1.76171875 C-6.69779073 3.6612807 -14.68826917 5.80812627 -22.625 10.0625 C-24.06746094 10.79919922 -24.06746094 10.79919922 -25.5390625 11.55078125 C-43.44340045 21.24318125 -57.08825056 37.91987193 -63.36132812 57.34228516 C-64.64946779 61.87480645 -65.69167955 66.44501986 -66.625 71.0625 C-66.955 71.0625 -67.285 71.0625 -67.625 71.0625 C-68.22002264 63.47596134 -66.05025773 57.19665229 -63.625 50.0625 C-63.25117187 48.94101563 -62.87734375 47.81953125 -62.4921875 46.6640625 C-62.20601562 45.80554687 -61.91984375 44.94703125 -61.625 44.0625 C-60.965 44.0625 -60.305 44.0625 -59.625 44.0625 C-59.51027344 43.49015625 -59.39554688 42.9178125 -59.27734375 42.328125 C-58.56317644 39.84778344 -57.55192128 37.99881303 -56.1875 35.8125 C-55.75566406 35.10609375 -55.32382813 34.3996875 -54.87890625 33.671875 C-54.46511719 33.14078125 -54.05132813 32.6096875 -53.625 32.0625 C-52.965 32.0625 -52.305 32.0625 -51.625 32.0625 C-51.3775 31.52625 -51.13 30.99 -50.875 30.4375 C-49.30644423 27.45724404 -47.65754003 24.75262652 -45.625 22.0625 C-43.5 21.4375 -43.5 21.4375 -41.625 21.0625 C-41.191875 20.1653125 -41.191875 20.1653125 -40.75 19.25 C-39.0975425 16.0368882 -36.71070645 14.82576083 -33.625 13.0625 C-32.635 13.0625 -31.645 13.0625 -30.625 13.0625 C-30.625 12.4025 -30.625 11.7425 -30.625 11.0625 C-24.875 8.0625 -24.875 8.0625 -22.625 8.0625 C-22.295 7.0725 -21.965 6.0825 -21.625 5.0625 C-18.53515625 3.9296875 -18.53515625 3.9296875 -14.6875 2.9375 C-3.34710953 -0.03891988 -3.34710953 -0.03891988 0 0 Z " fill="#7298BC" transform="translate(1318.625,1023.9375)"/>
<path d="M0 0 C1.65322266 0.01740234 1.65322266 0.01740234 3.33984375 0.03515625 C4.44457031 0.04417969 5.54929687 0.05320312 6.6875 0.0625 C7.54214844 0.07410156 8.39679688 0.08570313 9.27734375 0.09765625 C5.73619509 2.13004483 2.1818327 2.89328996 -1.78515625 3.78515625 C-31.7631894 11.00151606 -59.68587111 25.68074079 -82.72265625 46.09765625 C-83.05265625 45.43765625 -83.38265625 44.77765625 -83.72265625 44.09765625 C-80.88463217 40.26430618 -77.94283882 37.53298758 -74.09765625 34.72265625 C-73.03933594 33.94792969 -71.98101563 33.17320312 -70.890625 32.375 C-69.84519531 31.62347656 -68.79976562 30.87195313 -67.72265625 30.09765625 C-66.81128906 29.43894531 -65.89992188 28.78023437 -64.9609375 28.1015625 C-58.95914239 23.82769615 -53.13499166 19.9898544 -46.2421875 17.296875 C-42.45716127 15.79962706 -38.69855167 14.25392149 -34.953125 12.66015625 C-15.38849851 4.35346789 -15.38849851 4.35346789 -5.8203125 1.71875 C-0.01761097 0.00063167 -0.01761097 0.00063167 0 0 Z " fill="#D9E7F5" transform="translate(1319.72265625,921.90234375)"/>
<path d="M0 0 C2.4470175 2.4470175 2.73263455 4.09631399 3.5625 7.4375 C3.81128906 8.40558594 4.06007813 9.37367187 4.31640625 10.37109375 C6.18215303 20.27554382 6.14013894 30.24815839 6.11352539 40.29370117 C6.11324272 41.80269367 6.1134028 43.3116863 6.1139679 44.82067871 C6.11425277 48.8839596 6.10840647 52.94721049 6.10139394 57.01048446 C6.09510848 61.26922052 6.09455251 65.5279574 6.09336853 69.78669739 C6.09027045 77.836387 6.08207773 85.8860629 6.07201904 93.93574649 C6.06081043 103.10632098 6.05533552 112.27689615 6.05032361 121.44747579 C6.03989373 140.29832494 6.02232398 159.14916137 6 178 C5.67 178 5.34 178 5 178 C4.99576806 177.26561392 4.99153612 176.53122784 4.98717594 175.77458763 C4.88358304 157.85249554 4.77490435 139.93044077 4.66066074 122.00841331 C4.60553287 113.34123379 4.55208605 104.67405016 4.50268555 96.00683594 C4.45959168 88.44687274 4.41325314 80.88693735 4.36312145 73.32701743 C4.33672172 69.32923075 4.31187673 65.33144886 4.29092598 61.33362961 C4.27109665 57.55962557 4.24688178 53.78567346 4.21950912 50.01171684 C4.20592139 47.98908651 4.19679845 45.96642768 4.18788147 43.94377136 C4.06708985 27.55778848 4.06708985 27.55778848 1.4375 11.4375 C0.48759012 7.50605479 -0.17346056 4.0499269 0 0 Z " fill="#648FB7" transform="translate(1119,1080)"/>
<path d="M0 0 C2.37875294 0.42162671 2.37875294 0.42162671 4.95800781 0.31396484 C8.26081428 0.36570859 10.42254797 1.86165653 13.34228516 3.35131836 C14.41478516 3.49569336 15.48728516 3.64006836 16.59228516 3.78881836 C17.95353516 4.06725586 17.95353516 4.06725586 19.34228516 4.35131836 C20.51416016 6.38647461 20.51416016 6.38647461 21.34228516 8.35131836 C20.75817871 8.16448486 20.17407227 7.97765137 19.57226562 7.78515625 C-15.2756774 -3.05224625 -51.76450625 -4.03624509 -87.65771484 1.35131836 C-87.65771484 0.69131836 -87.65771484 0.03131836 -87.65771484 -0.64868164 C-59.49804633 -7.82398179 -28.21065096 -5.63255963 0 0 Z " fill="#D9E9F7" transform="translate(1418.65771484375,920.648681640625)"/>
<path d="M0 0 C1.6396875 -0.01836914 1.6396875 -0.01836914 3.3125 -0.03710938 C9.06644488 -0.04755843 13.9499731 0.22112205 19.375 2.1875 C15.78476053 3.3247774 12.51277835 3.24234335 8.765625 3.14453125 C-11.75648938 2.58149041 -11.75648938 2.58149041 -31.625 7.1875 C-32.67816406 7.56132813 -33.73132813 7.93515625 -34.81640625 8.3203125 C-50.13850126 14.22998388 -63.47094078 23.35984937 -72.625 37.1875 C-73.3203125 35.4375 -73.3203125 35.4375 -73.625 33.1875 C-72.3671875 31.1875 -72.3671875 31.1875 -70.5 29.1875 C-69.53320312 28.14722656 -69.53320312 28.14722656 -68.546875 27.0859375 C-66.36930411 24.93492236 -64.05509021 23.04580428 -61.625 21.1875 C-61.295 20.5275 -60.965 19.8675 -60.625 19.1875 C-59.635 19.1875 -58.645 19.1875 -57.625 19.1875 C-57.625 18.5275 -57.625 17.8675 -57.625 17.1875 C-56.635 17.1875 -55.645 17.1875 -54.625 17.1875 C-54.625 16.5275 -54.625 15.8675 -54.625 15.1875 C-45.7855419 10.61804362 -37.10377163 6.29772194 -27.625 3.1875 C-26.078125 2.5996875 -26.078125 2.5996875 -24.5 2 C-16.56552996 -0.24235023 -8.17794251 0.00485626 0 0 Z " fill="#739BBF" transform="translate(1042.625,1021.8125)"/>
<path d="M0 0 C0.66 0 1.32 0 2 0 C2.67119549 1.4562545 3.33681807 2.91507867 4 4.375 C4.556875 5.59316406 4.556875 5.59316406 5.125 6.8359375 C6 9 6 9 6 11 C6.99 11.33 7.98 11.66 9 12 C9.9921875 14.66796875 9.9921875 14.66796875 10.875 18.1875 C12.17852181 23.17858278 13.67224597 27.97960438 15.5 32.8125 C18.39320791 40.7265364 20.22698517 48.779852 22 57 C22.22816406 58.00804687 22.45632813 59.01609375 22.69140625 60.0546875 C23.72542817 64.81263452 24.09228908 69.10867894 24 74 C24.31445513 76.33595238 24.6503582 78.66905466 25 81 C25.98178166 89.72989637 26.7785646 98.3294976 25 107 C24.67 107 24.34 107 24 107 C23.96036133 106.18660156 23.92072266 105.37320312 23.87988281 104.53515625 C22.97684617 86.79372925 21.58390512 69.44077252 18 52 C17.84805176 51.2579834 17.69610352 50.5159668 17.53955078 49.75146484 C14.20835623 34.0451586 8.86136317 18.70804109 1.28515625 4.5546875 C0 2 0 2 0 0 Z " fill="#DCEAF7" transform="translate(1522,995)"/>
<path d="M0 0 C-3.29284675 1.81784276 -6.56030496 2.78048011 -10.1875 3.75 C-35.82809668 10.99280772 -59.95329891 21.58612047 -79.87890625 39.59741211 C-83.6950309 43 -83.6950309 43 -87 43 C-87 42.34 -87 41.68 -87 41 C-86.01 41 -85.02 41 -84 41 C-84 40.34 -84 39.68 -84 39 C-79.52941176 35 -79.52941176 35 -77 35 C-77 34.34 -77 33.68 -77 33 C-72.64705882 29 -72.64705882 29 -69 29 C-68.67 28.01 -68.34 27.02 -68 26 C-62.77777778 23 -62.77777778 23 -60 23 C-60 22.34 -60 21.68 -60 21 C-57.35261084 19.5393715 -56.10551666 19 -53 19 C-53 18.34 -53 17.68 -53 17 C-52.01 17 -51.02 17 -50 17 C-50 16.34 -50 15.68 -50 15 C-49.16597656 14.68546875 -48.33195313 14.3709375 -47.47265625 14.046875 C-39.77998794 11.12368483 -39.77998794 11.12368483 -32.25 7.8125 C-28.59760132 6.14015628 -25.06415343 5.26709091 -21.1328125 4.5 C-19.02768793 4.00649094 -17.21823699 3.32363267 -15.25 2.4375 C-10.02254944 0.12535841 -5.69742598 -0.11171423 0 0 Z " fill="#DBE9F6" transform="translate(1038,922)"/>
<path d="M0 0 C0 0.66 0 1.32 0 2 C0.99 2.33 1.98 2.66 3 3 C-0.83208099 2.46791853 -4.65091839 1.89671976 -8.46655273 1.25708008 C-20.75002392 -0.73630068 -32.71494722 -1.44419464 -45.15112305 -1.33618164 C-48.09255815 -1.3122555 -51.03309922 -1.31569813 -53.97460938 -1.32226562 C-62.66874878 -1.30828864 -71.11407874 -1.2473143 -79.65795898 0.57348633 C-82.15111754 1.02752031 -84.47136761 1.07071718 -87 1 C-66.21755811 -12.85496126 -22.75169519 -5.6879238 0 0 Z " fill="#E2EFFA" transform="translate(1125,921)"/>
<path d="M0 0 C0.66191345 0.00021149 1.3238269 0.00042297 2.00579834 0.00064087 C12.65030012 0.03455489 22.34776966 0.92146814 32.4375 4.375 C33.54867188 4.74882813 34.65984375 5.12265625 35.8046875 5.5078125 C42.76500574 8.12878022 50.89453353 11.8408428 54.6796875 18.58984375 C55.05480469 19.47349609 55.05480469 19.47349609 55.4375 20.375 C54.09894944 19.59218695 52.76676356 18.79848123 51.4375 18 C50.695 17.55914063 49.9525 17.11828125 49.1875 16.6640625 C48.61 16.23867187 48.0325 15.81328125 47.4375 15.375 C47.4375 14.715 47.4375 14.055 47.4375 13.375 C46.90125 13.106875 46.365 12.83875 45.8125 12.5625 C44.11640683 11.71445341 42.43688105 10.83293702 40.76953125 9.9296875 C37.16883211 8.24964265 33.59839787 7.21680877 29.75 6.3125 C29.0394043 6.14331055 28.32880859 5.97412109 27.59667969 5.79980469 C26.18024453 5.46671459 24.76277985 5.137967 23.34423828 4.81396484 C21.77593708 4.45291419 20.21323102 4.06764496 18.65234375 3.67578125 C7.38035325 1.15700049 -6.44123921 0.84686374 -17.58984375 4.03515625 C-20.11207505 4.46967927 -22.09902692 3.98765504 -24.5625 3.375 C-24.5625 3.045 -24.5625 2.715 -24.5625 2.375 C-16.37454336 0.3014653 -8.42055541 -0.01113129 0 0 Z " fill="#DCEBF8" transform="translate(1338.5625,1023.625)"/>
<path d="M0 0 C-0.54723683 3.37462715 -1.0549 5.08235 -3 8 C-3.66 7.34 -4.32 6.68 -5 6 C-4.34 4.68 -3.68 3.36 -3 2 C-8.58500567 2.19898708 -8.58500567 2.19898708 -13 5 C-16.06192131 5.18787689 -19.03186127 5.25546369 -22.09375 5.23046875 C-22.9962146 5.23001053 -23.8986792 5.22955231 -24.82849121 5.2290802 C-26.73837599 5.2260564 -28.64825827 5.21816631 -30.55810547 5.20581055 C-33.48804422 5.18757441 -36.41766672 5.1853007 -39.34765625 5.18554688 C-41.20052358 5.18063097 -43.05338875 5.17480233 -44.90625 5.16796875 C-45.78647827 5.16685593 -46.66670654 5.1657431 -47.5736084 5.16459656 C-53.76787481 5.1160626 -53.76787481 5.1160626 -56 4 C-56 3.34 -56 2.68 -56 2 C-54.77482666 1.97494385 -53.54965332 1.9498877 -52.28735352 1.92407227 C-47.70815965 1.82934874 -43.12909473 1.72929104 -38.55004883 1.62768555 C-36.57449375 1.58458077 -34.59890724 1.54289038 -32.62329102 1.50268555 C-29.77090009 1.44438535 -26.91866379 1.38086855 -24.06640625 1.31640625 C-23.19415909 1.29969376 -22.32191193 1.28298126 -21.42323303 1.26576233 C-16.54396515 1.14993392 -11.75725416 0.82333852 -6.91392517 0.21372986 C-4.60071041 -0.04458905 -2.32517866 -0.07500576 0 0 Z " fill="#D2DBEA" transform="translate(1185,839)"/>
<path d="M0 0 C0.33 0.99 0.66 1.98 1 3 C0.46632813 3.49886719 -0.06734375 3.99773437 -0.6171875 4.51171875 C-5.26479479 8.99046834 -9.45441397 13.6351454 -13.375 18.75 C-13.79120605 19.29229248 -14.20741211 19.83458496 -14.63623047 20.39331055 C-18.36555632 25.33918287 -21.28581908 30.44239145 -24 36 C-24.66 36 -25.32 36 -26 36 C-21.84343067 21.08525122 -11.87398211 9.60024085 0 0 Z " fill="#DCE9F5" transform="translate(1283,1041)"/>
<path d="M0 0 C0.99 0.33 1.98 0.66 3 1 C3 1.66 3 2.32 3 3 C3.99 3.33 4.98 3.66 6 4 C7.60546875 6.87109375 7.60546875 6.87109375 9.1875 10.4375 C9.71730469 11.61183594 10.24710938 12.78617188 10.79296875 13.99609375 C12 17 12 17 12 19 C12.66 19 13.32 19 14 19 C14.226875 20.134375 14.45375 21.26875 14.6875 22.4375 C15.55943437 26.4307067 16.68142766 30.30579829 17.87939453 34.20947266 C20.020721 41.19365612 21.65014816 47.65311138 22 55 C21.34 55 20.68 55 20 55 C19.67 56.32 19.34 57.64 19 59 C18.93006836 58.4423999 18.86013672 57.8847998 18.78808594 57.31030273 C16.05048391 35.88702639 10.78667138 18.68405578 0 0 Z " fill="#769BBE" transform="translate(1400,1048)"/>
<path d="M0 0 C2.98824534 0.01068184 5.97588467 0.00007804 8.96411133 -0.01269531 C37.24901308 -0.0350004 37.24901308 -0.0350004 43.69262695 4.26074219 C42.47575195 4.28136719 41.25887695 4.30199219 40.00512695 4.32324219 C38.97838867 4.34064453 38.97838867 4.34064453 37.9309082 4.35839844 C35.43174809 4.24936004 33.14180691 3.76389698 30.69262695 3.26074219 C21.59977105 2.16959948 12.46245462 2.15683531 3.31762695 2.13574219 C2.2004126 2.1311499 1.08319824 2.12655762 -0.06787109 2.12182617 C-4.62512312 2.13035077 -9.10726484 2.1489737 -13.62768555 2.76464844 C-17.40296704 3.27363013 -21.00097105 3.35984221 -24.80737305 3.32324219 C-26.03456055 3.31421875 -27.26174805 3.30519531 -28.52612305 3.29589844 C-29.44393555 3.28429687 -30.36174805 3.27269531 -31.30737305 3.26074219 C-31.30737305 2.93074219 -31.30737305 2.60074219 -31.30737305 2.26074219 C-20.92947421 -0.1565002 -10.59678868 -0.04500801 0 0 Z " fill="#6691B7" transform="translate(1074.307373046875,918.7392578125)"/>
<path d="M0 0 C0 0.33 0 0.66 0 1 C-0.79994385 1.02505615 -1.5998877 1.0501123 -2.42407227 1.07592773 C-6.13697187 1.19376787 -9.84976983 1.31445482 -13.5625 1.4375 C-14.56265137 1.47059769 -14.56265137 1.47059769 -15.58300781 1.50436401 C-24.01272151 1.7869093 -32.40629326 2.17852211 -40.81640625 2.8125 C-46.2096422 3.13013844 -51.59992165 3.08195734 -57 3 C-57 2.67 -57 2.34 -57 2 C-38.56489281 -1.1895963 -18.54214977 -3.45501596 0 0 Z " fill="#789EC1" transform="translate(1391,919)"/>
<path d="M0 0 C0.33 0 0.66 0 1 0 C2.4592398 5.8369592 2.20382075 11.52540566 1.5 17.4375 C0.66522797 24.92693357 0.92144386 32.47606726 1 40 C1.66 40.33 2.32 40.66 3 41 C1.25 44.875 1.25 44.875 -1 46 C-1.02527062 39.60962769 -1.04283317 33.21926817 -1.05493164 26.82885742 C-1.05997308 24.65307127 -1.06680607 22.47728853 -1.07543945 20.30151367 C-1.08751338 17.18146933 -1.09323005 14.06146962 -1.09765625 10.94140625 C-1.10281754 9.96224747 -1.10797882 8.98308868 -1.11329651 7.97425842 C-1.11337204 7.07340012 -1.11344757 6.17254181 -1.11352539 5.24438477 C-1.115746 4.44718521 -1.11796661 3.64998566 -1.12025452 2.82862854 C-1 1 -1 1 0 0 Z " fill="#E1EEFB" transform="translate(946,927)"/>
<path d="M0 0 C8.62763843 -0.1652101 16.93709063 -0.30786026 25 3 C29.04136613 3.68198053 33.12851377 3.94281864 37.21484375 4.2109375 C38.29894531 4.28570313 39.38304687 4.36046875 40.5 4.4375 C42.03140625 4.52837891 42.03140625 4.52837891 43.59375 4.62109375 C44.3878125 4.74613281 45.181875 4.87117187 46 5 C46.495 5.99 46.495 5.99 47 7 C33.20370579 7.47032821 12.35328111 7.09396341 0 0 Z " fill="#31476A" transform="translate(1091,834)"/>
<path d="M0 0 C5.93374995 -0.16238312 11.36941771 0.34571113 17.1875 1.5 C18.03666992 1.66725586 18.88583984 1.83451172 19.76074219 2.00683594 C29.91047433 4.17621603 39.44378542 8.01872686 49 12 C45.25890201 13.24703266 44.55570977 12.45460854 41 11 C39.865625 10.855625 38.73125 10.71125 37.5625 10.5625 C34 10 34 10 31.25390625 8.59375 C27.70647794 6.85623409 24.19540013 5.84262387 20.375 4.9375 C19.68148438 4.76831055 18.98796875 4.59912109 18.2734375 4.42480469 C12.23043491 2.98348192 6.14937335 1.88513707 0 1 C0 0.67 0 0.34 0 0 Z " fill="#7298BC" transform="translate(1402,921)"/>
<path d="M0 0 C5.01027549 1.21461224 7.3263974 4.39356489 10.44921875 8.22265625 C11.89338958 10.10499903 11.89338958 10.10499903 14 11 C17.68095673 16.60907692 20.43133666 22.81983991 23 29 C23.30164062 29.71542969 23.60328125 30.43085937 23.9140625 31.16796875 C25.40965941 34.89298349 26.37763079 37.97193824 26 42 C24.00079282 39.00118923 22.96834144 36.37886693 21.75 33 C16.87993215 20.20719786 10.01906417 9.39287266 0 0 Z " fill="#6E96BA" transform="translate(1093,1038)"/>
<path d="M0 0 C2.49361571 1.20381448 4.68143083 2.45428722 7 4 C7 4.66 7 5.32 7 6 C7.99 6 8.98 6 10 6 C11.39300182 7.95890881 12.72245446 9.9639118 14 12 C14.5775 12.5775 15.155 13.155 15.75 13.75 C17 15 17 15 17 17 C17.99 17 18.98 17 20 17 C20 18.32 20 19.64 20 21 C20.66 21 21.32 21 22 21 C22 21.66 22 22.32 22 23 C22.66 23 23.32 23 24 23 C26 26 26 26 26 29 C26.66 29 27.32 29 28 29 C27.67 30.32 27.34 31.64 27 33 C26.40574219 32.12859375 25.81148437 31.2571875 25.19921875 30.359375 C20.08004155 22.96373105 14.67761024 16.17577678 8.49609375 9.64453125 C5.54650785 6.51953962 2.76494945 3.288048 0 0 Z " fill="#D9E8F8" transform="translate(1491,957)"/>
<path d="M0 0 C1.96870111 0.06338621 3.93745193 0.12524753 5.90625 0.18554688 C10.68825461 0.33528968 15.46911302 0.50565305 20.25 0.6875 C20.25 1.0175 20.25 1.3475 20.25 1.6875 C19.10112305 1.70731934 17.95224609 1.72713867 16.76855469 1.74755859 C12.45194841 1.82439435 8.13564556 1.91298233 3.81933594 2.00488281 C1.96132454 2.04285395 0.10324758 2.07775846 -1.75488281 2.109375 C-15.63839954 2.32149526 -15.63839954 2.32149526 -29.36621094 4.27197266 C-31.87199905 4.70876612 -34.21159457 4.75722395 -36.75 4.6875 C-26.07164716 -2.43140189 -12.19592698 -0.46915308 0 0 Z " fill="#BFD6EA" transform="translate(1074.75,917.3125)"/>
<path d="M0 0 C0.33 0 0.66 0 1 0 C1.35030829 5.6049327 0.93558533 9.7918567 -1.2734375 14.953125 C-2.32130724 17.90518813 -2.50672956 20.81035259 -2.69140625 23.921875 C-3.04129799 26.27810798 -3.90301357 27.89920746 -5 30 C-5.38290462 31.99110401 -5.72604615 33.99100513 -6 36 C-6.33 36 -6.66 36 -7 36 C-7.43288179 28.53969683 -5.81091617 21.85071991 -4.0625 14.625 C-3.78470703 13.43777344 -3.50691406 12.25054688 -3.22070312 11.02734375 C-1.16100176 2.32200352 -1.16100176 2.32200352 0 0 Z " fill="#D2E2F2" transform="translate(1256,1077)"/>
<path d="M0 0 C0 0.99 0 1.98 0 3 C-4.22222222 6 -4.22222222 6 -7 6 C-7 6.66 -7 7.32 -7 8 C-8.50903877 9.35373964 -10.08412698 10.63443401 -11.6875 11.875 C-12.55761719 12.55304687 -13.42773438 13.23109375 -14.32421875 13.9296875 C-16.08992296 15.2958528 -17.85682611 16.66047012 -19.625 18.0234375 C-21.77913097 19.81618466 -23.53148497 21.59621438 -25.3125 23.75 C-26.08013672 24.67039062 -26.08013672 24.67039062 -26.86328125 25.609375 C-27.23839844 26.06828125 -27.61351562 26.5271875 -28 27 C-28.33 26.01 -28.66 25.02 -29 24 C-20.26527392 14.79265347 -11.06743372 6.37092126 0 0 Z " fill="#6993BB" transform="translate(976,947)"/>
<path d="M0 0 C0.33 0 0.66 0 1 0 C0.35161682 10.70950146 -2.507478 18.81685058 -8 28 C-8.66 27.67 -9.32 27.34 -10 27 C-7.97607539 20.72555221 -5.73023007 14.57015561 -3.3125 8.4375 C-2.83200195 7.21063477 -2.83200195 7.21063477 -2.34179688 5.95898438 C-1.56321746 3.97186378 -0.78190155 1.98581573 0 0 Z " fill="#DCE5EF" transform="translate(1199,912)"/>
<path d="M0 0 C0.66 0 1.32 0 2 0 C-1.41154338 8.34344849 -12.26385585 14.07763919 -20 18 C-22.2890625 18.66015625 -22.2890625 18.66015625 -24 19 C-24.33 18.34 -24.66 17.68 -25 17 C-23.35 16.67 -21.7 16.34 -20 16 C-20 15.34 -20 14.68 -20 14 C-19.195625 13.71125 -18.39125 13.4225 -17.5625 13.125 C-14.8673532 12.26737432 -14.8673532 12.26737432 -14 10 C-12.00892752 8.98234073 -10.00781177 7.98422146 -8 7 C-7.2575 6.443125 -6.515 5.88625 -5.75 5.3125 C-4 4 -4 4 -2 4 C-1.34 2.68 -0.68 1.36 0 0 Z " fill="#D6DDED" transform="translate(1244,711)"/>
<path d="M0 0 C0.66 0 1.32 0 2 0 C2.35416394 4.9582952 1.41132333 7.69406549 -1 12 C-1.67058132 13.37309509 -2.33708922 14.74818529 -3 16.125 C-4.42606044 18.98809057 -5.94227379 21.53072854 -8 24 C-9.22444576 20.32666271 -8.65749402 19.5683084 -7.12890625 16.11328125 C-6.51499023 14.7065918 -6.51499023 14.7065918 -5.88867188 13.27148438 C-5.45103516 12.29501953 -5.01339844 11.31855469 -4.5625 10.3125 C-4.12873047 9.32443359 -3.69496094 8.33636719 -3.24804688 7.31835938 C-2.17390467 4.87498095 -1.09095482 2.43590696 0 0 Z " fill="#DEE5EF" transform="translate(1220,862)"/>
<path d="M0 0 C4.53489627 -0.04986353 9.0696289 -0.08593637 13.60473633 -0.10986328 C15.14382715 -0.11985006 16.68289935 -0.13344419 18.22192383 -0.15087891 C39.12808708 -0.38158632 39.12808708 -0.38158632 44.5625 4.125 C45.036875 4.74375 45.51125 5.3625 46 6 C44.94167969 5.72285156 43.88335938 5.44570312 42.79296875 5.16015625 C28.591263 1.69361067 14.57521934 1.18960698 0 1 C0 0.67 0 0.34 0 0 Z " fill="#7CA2C4" transform="translate(1327,1023)"/>
<path d="M0 0 C-0.59167969 0.25394531 -1.18335938 0.50789063 -1.79296875 0.76953125 C-5.20221126 2.25447048 -8.50144326 3.69854709 -11.6875 5.625 C-14 7 -14 7 -17 7.9375 C-20.11469151 8.84663376 -20.11469151 8.84663376 -22.5625 11.125 C-25.34242241 13.26340185 -26.58457791 13.39033395 -30 13 C-23.54358407 7.21148917 -9.0095714 -3.14001008 0 0 Z " fill="#DBE9F6" transform="translate(1314,1028)"/>
<path d="M0 0 C0.66 0.33 1.32 0.66 2 1 C-1.68966303 5.51983721 -5.45482916 9.34353729 -9.91796875 13.08984375 C-12.9565948 15.87762637 -15.48413716 19.05052243 -18.04296875 22.27734375 C-20 24 -20 24 -22.73828125 24.25390625 C-23.48464844 24.17011719 -24.23101563 24.08632813 -25 24 C-24 22 -24 22 -22.23535156 21.16064453 C-19.3657699 19.67069354 -17.5050143 17.72943756 -15.234375 15.4296875 C-14.34492187 14.53378906 -13.45546875 13.63789062 -12.5390625 12.71484375 C-11.61867188 11.77769531 -10.69828125 10.84054687 -9.75 9.875 C-8.80515144 8.92011363 -7.85984367 7.96568141 -6.9140625 7.01171875 C-4.60481662 4.67890913 -2.30036797 2.34155914 0 0 Z " fill="#6C94BA" transform="translate(1240,964)"/>
<path d="M0 0 C-1.31307372 2.89852365 -2.72684638 4.98277217 -4.96875 7.234375 C-5.82533203 8.09482422 -5.82533203 8.09482422 -6.69921875 8.97265625 C-7.59060547 9.85244141 -7.59060547 9.85244141 -8.5 10.75 C-9.09425781 11.35199219 -9.68851563 11.95398438 -10.30078125 12.57421875 C-10.87183594 13.14269531 -11.44289063 13.71117187 -12.03125 14.296875 C-12.55267578 14.81604492 -13.07410156 15.33521484 -13.61132812 15.87011719 C-15 17 -15 17 -17 17 C-17.66 15.35 -18.32 13.7 -19 12 C-16.525 12.495 -16.525 12.495 -14 13 C-14 12.34 -14 11.68 -14 11 C-13.01 11 -12.02 11 -11 11 C-10.67 9.68 -10.34 8.36 -10 7 C-9.34 7 -8.68 7 -8 7 C-8 6.34 -8 5.68 -8 5 C-2.52380952 0 -2.52380952 0 0 0 Z " fill="#D5E3F1" transform="translate(1233,970)"/>
<path d="M0 0 C2.31 0.33 4.62 0.66 7 1 C7 1.66 7 2.32 7 3 C7.84949219 3.23847656 8.69898438 3.47695313 9.57421875 3.72265625 C13.38876414 5.14495539 16.51245242 7.108276 19.8125 9.4375 C20.39708984 9.83259766 20.98167969 10.22769531 21.58398438 10.63476562 C25.87415902 13.62247705 25.87415902 13.62247705 27 17 C23.68754419 15.96485756 21.24957921 14.50154871 18.5625 12.375 C12.80651005 7.89442208 6.36638236 4.52297001 0 1 C0 0.67 0 0.34 0 0 Z " fill="#D7E7F6" transform="translate(1462,938)"/>
<path d="M0 0 C0.68100266 0.00141495 1.36200531 0.0028299 2.06364441 0.00428772 C4.22346522 0.00985327 6.38317964 0.02239922 8.54296875 0.03515625 C10.01367037 0.04017571 11.48437363 0.04473784 12.95507812 0.04882812 C16.54690915 0.05981137 20.13867855 0.07705203 23.73046875 0.09765625 C23.73046875 0.42765625 23.73046875 0.75765625 23.73046875 1.09765625 C17.98712204 2.62286036 12.09835533 2.14555709 6.2109375 2.05859375 C2.32549282 2.02353711 -1.40797037 2.03501759 -5.25 2.65625 C-8.46094536 3.12563787 -9.63018756 2.89240996 -12.26953125 1.09765625 C-8.12711709 0.09752451 -4.25472821 -0.01750917 0 0 Z " fill="#E0EEF9" transform="translate(1034.26953125,1023.90234375)"/>
<path d="M0 0 C-1.52598149 3.78066201 -3.80530598 5.80958687 -6.875 8.4375 C-9.60696191 10.78209418 -11.96294597 12.95299018 -14.1953125 15.78515625 C-14.79085938 16.51605469 -15.38640625 17.24695312 -16 18 C-16.66 18 -17.32 18 -18 18 C-16.34185057 14.40734291 -14.38641889 11.15849558 -12 8 C-9.875 7.375 -9.875 7.375 -8 7 C-7.29848848 5.6846659 -6.63474075 4.34882408 -6 3 C-2.57142857 0 -2.57142857 0 0 0 Z " fill="#658FB7" transform="translate(1285,1038)"/>
<path d="M0 0 C0.99 0.33 1.98 0.66 3 1 C3 1.66 3 2.32 3 3 C3.99 3.33 4.98 3.66 6 4 C7.60546875 6.87109375 7.60546875 6.87109375 9.1875 10.4375 C9.71730469 11.61183594 10.24710938 12.78617188 10.79296875 13.99609375 C12 17 12 17 12 19 C12.66 19 13.32 19 14 19 C14.33 21.97 14.66 24.94 15 28 C12.26031861 25.26031861 11.20528116 21.96159063 9.75 18.4375 C7.333548 12.71977918 4.73290787 7.5489359 1.06640625 2.50390625 C0 1 0 1 0 0 Z " fill="#6790B7" transform="translate(1400,1048)"/>
<path d="M0 0 C0.33 0.66 0.66 1.32 1 2 C-1.55915835 7.06608898 -5.39432773 11.17129328 -9.0390625 15.4765625 C-11.15496427 17.91086661 -11.15496427 17.91086661 -12 21 C-12.66 21 -13.32 21 -14 21 C-10.98476393 12.89299736 -5.71288169 6.39298666 0 0 Z " fill="#DDEBF7" transform="translate(979,1047)"/>
<path d="M0 0 C0.66 0.33 1.32 0.66 2 1 C-0.1533268 5.3066536 -6.63348096 7.4121749 -11 9 C-11 9.66 -11 10.32 -11 11 C-11.66 11 -12.32 11 -13 11 C-13.226875 11.639375 -13.45375 12.27875 -13.6875 12.9375 C-15 15 -15 15 -17.625 15.75 C-18.40875 15.8325 -19.1925 15.915 -20 16 C-16.65050414 11.17848885 -12.56627482 8.37424014 -7.75 5.1875 C-7.00492188 4.68541016 -6.25984375 4.18332031 -5.4921875 3.66601562 C-3.66605943 2.43689096 -1.83540611 1.21520721 0 0 Z " fill="#6C91B6" transform="translate(1262,948)"/>
<path d="M0 0 C0.8971875 0.5259375 0.8971875 0.5259375 1.8125 1.0625 C0.50925781 1.46082031 0.50925781 1.46082031 -0.8203125 1.8671875 C-1.97273437 2.22039063 -3.12515625 2.57359375 -4.3125 2.9375 C-6.01792969 3.45957031 -6.01792969 3.45957031 -7.7578125 3.9921875 C-9.98103752 4.68599576 -12.18716639 5.43829596 -14.3671875 6.2578125 C-17.32004403 7.10031727 -18.35125625 6.91830902 -21.1875 6.0625 C-18.58358461 5.08266072 -15.97938032 4.10360206 -13.375 3.125 C-12.63701172 2.84720703 -11.89902344 2.56941406 -11.13867188 2.28320312 C-10.42646484 2.01572266 -9.71425781 1.74824219 -8.98046875 1.47265625 C-8.3258667 1.22652588 -7.67126465 0.98039551 -6.99682617 0.72680664 C-2.31501938 -0.99215116 -2.31501938 -0.99215116 0 0 Z " fill="#7098BB" transform="translate(1022.1875,927.9375)"/>
<path d="M0 0 C16.70842825 -0.3690205 16.70842825 -0.3690205 25 2 C25 2.66 25 3.32 25 4 C25.99 4.33 26.98 4.66 28 5 C22.02083333 4.14583333 16.04166667 3.29166667 10.0625 2.4375 C9.09248047 2.29892578 8.12246094 2.16035156 7.12304688 2.01757812 C4.74869792 1.67838542 2.37434896 1.33919271 0 1 C0 0.67 0 0.34 0 0 Z " fill="#CDDFF0" transform="translate(1100,919)"/>
<path d="M0 0 C0 0.66 0 1.32 0 2 C-1.89298579 3.2179676 -3.8415036 4.35029558 -5.8125 5.4375 C-9.34085325 7.3892653 -12.20283732 9.11958843 -15 12 C-18.1875 13.1875 -18.1875 13.1875 -21 14 C-16.21262661 8.73388927 -7.50659294 0 0 0 Z " fill="#DCEAF6" transform="translate(1001,1033)"/>
<path d="M0 0 C-2.23497313 2.23497313 -2.97897623 2.37662947 -5.9921875 2.88671875 C-6.77980469 3.02013672 -7.56742188 3.15355469 -8.37890625 3.29101562 C-9.61447266 3.48727539 -9.61447266 3.48727539 -10.875 3.6875 C-12.09896484 3.90116211 -12.09896484 3.90116211 -13.34765625 4.11914062 C-14.53294922 4.3134668 -14.53294922 4.3134668 -15.7421875 4.51171875 C-16.82282471 4.68900513 -16.82282471 4.68900513 -17.92529297 4.86987305 C-20.16628852 5.01042972 -21.86334605 4.65375233 -24 4 C-18.66666667 2.66666667 -13.33333333 1.33333333 -8 0 C-7.30616211 -0.19408447 -6.61232422 -0.38816895 -5.89746094 -0.58813477 C-3.63264244 -1.07973909 -2.18310741 -0.7017131 0 0 Z " fill="#7097BB" transform="translate(1333,923)"/>
<path d="M0 0 C2 2 2 2 3 4.5625 C3.74870114 7.14841441 3.74870114 7.14841441 6 8 C6.144375 8.639375 6.28875 9.27875 6.4375 9.9375 C6.86165035 12.38210855 6.86165035 12.38210855 10 14 C11.25 16.4375 11.25 16.4375 12 19 C11.67 19.99 11.34 20.98 11 22 C9.55562517 19.81678354 8.11950948 17.62880754 6.6875 15.4375 C6.28337891 14.82841797 5.87925781 14.21933594 5.46289062 13.59179688 C2.81643202 9.52528731 0.79348871 5.50984054 -1 1 C-0.67 0.67 -0.34 0.34 0 0 Z " fill="#2C4164" transform="translate(995,755)"/>
<path d="M0 0 C2.99254618 1.40191353 5.5954611 3.03367489 8.25 5 C8.95640625 5.515625 9.6628125 6.03125 10.390625 6.5625 C11.18726563 7.2740625 11.18726563 7.2740625 12 8 C12 8.66 12 9.32 12 10 C12.598125 10.04125 13.19625 10.0825 13.8125 10.125 C16 11 16 11 17.75 14.0625 C18.1625 15.031875 18.575 16.00125 19 17 C16 17 16 17 14.4921875 15.53125 C13.69167969 14.52578125 13.69167969 14.52578125 12.875 13.5 C9.48053476 9.42228052 5.75392709 6.00543696 1.72265625 2.56640625 C1.15417969 2.04949219 0.58570313 1.53257812 0 1 C0 0.67 0 0.34 0 0 Z " fill="#DDEBF8" transform="translate(1187,953)"/>
<path d="M0 0 C0.66 0.66 1.32 1.32 2 2 C-0.64 8.27 -3.28 14.54 -6 21 C-6.33 21 -6.66 21 -7 21 C-6.69196223 13.14503688 -3.46909516 6.95940803 0 0 Z " fill="#294064" transform="translate(1208,886)"/>
<path d="M0 0 C-1.59679804 1.3421492 -3.20270197 2.67347115 -4.8125 4 C-6.15248047 5.11375 -6.15248047 5.11375 -7.51953125 6.25 C-10 8 -10 8 -13 8 C-12.36338468 5.13523105 -11.63204884 3.43956744 -9.19140625 1.7421875 C-3.5906985 -1.1968995 -3.5906985 -1.1968995 0 0 Z " fill="#ECF0F6" transform="translate(1248,819)"/>
<path d="M0 0 C0.33 0 0.66 0 1 0 C0.41993763 7.75451806 -0.62440584 15.34742277 -2 23 C-2.33 23 -2.66 23 -3 23 C-3.23313032 15.46211966 -3.09548878 8.29597188 -1 1 C-0.67 0.67 -0.34 0.34 0 0 Z " fill="#7096BB" transform="translate(953,1096)"/>
<path d="M0 0 C3.89912609 0.60408996 6.27947699 2.50783535 9.375 4.875 C13.11052308 7.72662466 16.74116892 10.00249516 21 12 C18 13 18 13 16.0546875 12.25 C10.33867052 8.97199743 4.95808043 5.36029768 0 1 C0 0.67 0 0.34 0 0 Z " fill="#D9E2F0" transform="translate(1034,807)"/>
<path d="M0 0 C3.92286166 3.92286166 4.74978815 10.93107508 5.19140625 16.34765625 C5.18821921 17.89974614 5.10557941 19.45150196 5 21 C2.27960591 18.27960591 2.15198872 15.93509713 1.375 12.1875 C1.11460938 10.96417969 0.85421875 9.74085937 0.5859375 8.48046875 C0.09297596 5.5522772 -0.12382257 2.95485688 0 0 Z " fill="#6B94BA" transform="translate(1119,1080)"/>
<path d="M0 0 C0.66 0.33 1.32 0.66 2 1 C-8.53751996 8.2357637 -8.53751996 8.2357637 -13 10 C-15.16796875 9.56640625 -15.16796875 9.56640625 -17 9 C-14.21526125 7.46621464 -11.42121662 5.9502442 -8.625 4.4375 C-7.8309375 3.99986328 -7.036875 3.56222656 -6.21875 3.11132812 C-5.45820312 2.70205078 -4.69765625 2.29277344 -3.9140625 1.87109375 C-2.8614624 1.29766235 -2.8614624 1.29766235 -1.78759766 0.71264648 C-1.19769043 0.47747314 -0.6077832 0.2422998 0 0 Z " fill="#7399BA" transform="translate(1281,938)"/>
<path d="M0 0 C1.12651007 3.37953022 0.93410746 3.84337059 -0.36328125 6.9765625 C-0.67330078 7.729375 -0.98332031 8.4821875 -1.30273438 9.2578125 C-1.80256836 10.42957031 -1.80256836 10.42957031 -2.3125 11.625 C-2.63412109 12.41390625 -2.95574219 13.2028125 -3.28710938 14.015625 C-5.73556321 19.86778161 -5.73556321 19.86778161 -8 21 C-6.36053513 13.62240809 -4.2225237 6.33378555 0 0 Z " fill="#283D62" transform="translate(1232,830)"/>
<path d="M0 0 C0.66 0 1.32 0 2 0 C0.49392117 4.10088936 -1.96188878 5.53509554 -5.625 7.75 C-7.12933594 8.67039062 -7.12933594 8.67039062 -8.6640625 9.609375 C-9.43492188 10.06828125 -10.20578125 10.5271875 -11 11 C-11.33 10.01 -11.66 9.02 -12 8 C-11.30132813 7.59007812 -10.60265625 7.18015625 -9.8828125 6.7578125 C-8.97273438 6.21898437 -8.06265625 5.68015625 -7.125 5.125 C-6.22007813 4.59132813 -5.31515625 4.05765625 -4.3828125 3.5078125 C-1.93396718 2.08024648 -1.93396718 2.08024648 0 0 Z " fill="#253A5D" transform="translate(1257,807)"/>
<path d="M0 0 C0.66 0.66 1.32 1.32 2 2 C-5.33763707 3.17402193 -12.58165418 3.09377123 -20 3 C-20 2.67 -20 2.34 -20 2 C-6.64772727 -0.49242424 -6.64772727 -0.49242424 0 0 Z " fill="#7199BC" transform="translate(1063,919)"/>
<path d="M0 0 C0.99 0.33 1.98 0.66 3 1 C1.23055495 2.46001748 -0.54060571 3.91795593 -2.3125 5.375 C-3.29863281 6.18710937 -4.28476562 6.99921875 -5.30078125 7.8359375 C-8 10 -8 10 -11 12 C-11.33 11.01 -11.66 10.02 -12 9 C-11.01 9 -10.02 9 -9 9 C-9 8.34 -9 7.68 -9 7 C-4.52941176 3 -4.52941176 3 -2 3 C-2 2.34 -2 1.68 -2 1 C-1.34 0.67 -0.68 0.34 0 0 Z " fill="#D6E4F3" transform="translate(963,954)"/>
<path d="M0 0 C7.65133742 -0.40989308 13.2897071 1.36525801 20 5 C20 5.66 20 6.32 20 7 C19.47792969 6.81824219 18.95585938 6.63648438 18.41796875 6.44921875 C12.34250187 4.37440957 6.20694217 2.63584831 0 1 C0 0.67 0 0.34 0 0 Z " fill="#749CC0" transform="translate(1064,1025)"/>
<path d="M0 0 C-0.54723683 3.37462715 -1.0549 5.08235 -3 8 C-3.66 7.34 -4.32 6.68 -5 6 C-4.34 4.68 -3.68 3.36 -3 2 C-6.63 2 -10.26 2 -14 2 C-14 1.67 -14 1.34 -14 1 C-4.58997722 -0.14806378 -4.58997722 -0.14806378 0 0 Z " fill="#C5CFE3" transform="translate(1185,839)"/>
<path d="M0 0 C5.39795989 1.15058556 10.70987333 2.42421759 16 4 C16 4.33 16 4.66 16 5 C10.21549928 5.34707004 6.03436469 5.27233705 1 2 C0.67 1.34 0.34 0.68 0 0 Z " fill="#20375E" transform="translate(1145,731)"/>
<path d="M0 0 C1.06528748 2.73019786 1.07998186 3.79298812 0.00390625 6.578125 C-0.47175781 7.45984375 -0.94742187 8.3415625 -1.4375 9.25 C-1.91058594 10.14203125 -2.38367187 11.0340625 -2.87109375 11.953125 C-3.24363281 12.62859375 -3.61617187 13.3040625 -4 14 C-5.06528748 11.26980214 -5.07998186 10.20701188 -4.00390625 7.421875 C-3.52824219 6.54015625 -3.05257813 5.6584375 -2.5625 4.75 C-2.08941406 3.85796875 -1.61632813 2.9659375 -1.12890625 2.046875 C-0.75636719 1.37140625 -0.38382813 0.6959375 0 0 Z " fill="#243B5F" transform="translate(1220,858)"/>
<path d="M0 0 C0 4.09089094 -1.69866948 5.44918487 -4.33203125 8.4140625 C-6.36890116 10.35075848 -8.29054445 11.28279118 -11 12 C-7.49102731 7.81576108 -3.91939465 3.80411834 0 0 Z M-13 12 C-11 13 -11 13 -11 13 Z " fill="#D2DBE8" transform="translate(1271,797)"/>
<path d="M0 0 C1.01054862 3.03164585 1.0265912 4.51750751 0.6875 7.625 C0.60886719 8.42164063 0.53023437 9.21828125 0.44921875 10.0390625 C0.30097656 10.68617187 0.15273438 11.33328125 0 12 C-0.99 12.495 -0.99 12.495 -2 13 C-2.16682272 8.07872966 -2.24828052 4.49656104 0 0 Z M-3 13 C-1.515 13.99 -1.515 13.99 0 15 C-0.33 15.99 -0.66 16.98 -1 18 C-1.66 18 -2.32 18 -3 18 C-3 16.35 -3 14.7 -3 13 Z " fill="#ECF2F9" transform="translate(956,1095)"/>
<path d="M0 0 C0.33 0.99 0.66 1.98 1 3 C-0.14453125 5.0078125 -0.14453125 5.0078125 -1.8125 7.125 C-2.62654297 8.18074219 -2.62654297 8.18074219 -3.45703125 9.2578125 C-5 11 -5 11 -7 12 C-6.67 10.68 -6.34 9.36 -6 8 C-5.34 8 -4.68 8 -4 8 C-3.896875 7.236875 -3.79375 6.47375 -3.6875 5.6875 C-2.95635961 2.82940576 -2.23048087 1.84257115 0 0 Z " fill="#E9EEF8" transform="translate(1255,697)"/>
<path d="M0 0 C0.33 0 0.66 0 1 0 C0.50269348 4.97306516 -0.55302334 8.63799813 -3 13 C-3.66 13 -4.32 13 -5 13 C-4.54554036 11.58208592 -4.08625056 10.16571954 -3.625 8.75 C-3.24214844 7.56664062 -3.24214844 7.56664062 -2.8515625 6.359375 C-2.04826333 4.13372042 -1.10288338 2.09068328 0 0 Z " fill="#D5E6F5" transform="translate(964,1068)"/>
<path d="M0 0 C0.66 0 1.32 0 2 0 C0.45730076 4.72065967 -1.07794619 9.41664092 -3 14 C-3.33 14 -3.66 14 -4 14 C-3.46148032 8.72250715 -2.22656164 4.74354436 0 0 Z " fill="#2A4265" transform="translate(1191,928)"/>
<path d="M0 0 C0.6875 1.625 0.6875 1.625 1 4 C-0.375 7.125 -0.375 7.125 -2 10 C-2.33 10.66 -2.66 11.32 -3 12 C-3.66 12 -4.32 12 -5 12 C-4.54738642 10.56068883 -4.08767021 9.12361001 -3.625 7.6875 C-3.24214844 6.48673828 -3.24214844 6.48673828 -2.8515625 5.26171875 C-2 3 -2 3 0 0 Z " fill="#D5E6F5" transform="translate(1262,1065)"/>
<path d="M0 0 C0.99 0.33 1.98 0.66 3 1 C2.01 4.3 1.02 7.6 0 11 C-0.66 10.67 -1.32 10.34 -2 10 C-1.54177532 6.53058454 -1.10868317 3.32604951 0 0 Z " fill="#DFE9F4" transform="translate(1187,942)"/>
<path d="M0 0 C0.33 0.99 0.66 1.98 1 3 C-1.64 5.64 -4.28 8.28 -7 11 C-7.33 10.01 -7.66 9.02 -8 8 C-6.71034824 6.62437146 -5.37310707 5.29233607 -4 4 C-3.34 4 -2.68 4 -2 4 C-2 3.34 -2 2.68 -2 2 C-1.34 2 -0.68 2 0 2 C0 1.34 0 0.68 0 0 Z " fill="#243B5F" transform="translate(1271,794)"/>
<path d="M0 0 C3.59478807 3.32850747 6.22364768 6.98971331 9 11 C6 11 6 11 4.39453125 9.609375 C3.87246094 8.99578125 3.35039063 8.3821875 2.8125 7.75 C2.28269531 7.14671875 1.75289062 6.5434375 1.20703125 5.921875 C0 4 0 4 0 0 Z " fill="#344B6D" transform="translate(1116,706)"/>
<path d="M0 0 C5.23175837 -0.38281159 8.37802694 0.78145293 13 3 C12.67 3.66 12.34 4.32 12 5 C10.56068883 4.54738642 9.12361001 4.08767021 7.6875 3.625 C6.88699219 3.36976563 6.08648438 3.11453125 5.26171875 2.8515625 C3 2 3 2 0 0 Z " fill="#D0E1F1" transform="translate(1441,929)"/>
<path d="M0 0 C0.66 0.99 1.32 1.98 2 3 C1.3203125 5.26171875 1.3203125 5.26171875 0.125 7.6875 C-0.45894531 8.89986328 -0.45894531 8.89986328 -1.0546875 10.13671875 C-1.52261719 11.05904297 -1.52261719 11.05904297 -2 12 C-2.66 12 -3.32 12 -4 12 C-2.66666667 8 -1.33333333 4 0 0 Z " fill="#D3DBEA" transform="translate(1231,835)"/>
<path d="M0 0 C-2.81870287 2.81870287 -5.09056945 2.7303841 -9 3 C-11.4375 2.0625 -11.4375 2.0625 -13 1 C-8.59085217 -0.10228696 -4.51617599 -0.07654536 0 0 Z " fill="#D3E4F1" transform="translate(1035,1024)"/>
<path d="M0 0 C0 0.66 0 1.32 0 2 C-1.28745036 2.38922918 -2.58019597 2.76098036 -3.875 3.125 C-4.95394531 3.43824219 -4.95394531 3.43824219 -6.0546875 3.7578125 C-6.69664063 3.83773437 -7.33859375 3.91765625 -8 4 C-8.66 3.34 -9.32 2.68 -10 2 C-8.71211992 1.46987262 -7.41953322 0.9511671 -6.125 0.4375 C-5.40570312 0.14746094 -4.68640625 -0.14257812 -3.9453125 -0.44140625 C-2 -1 -2 -1 0 0 Z " fill="#719ABF" transform="translate(1305,930)"/>
<path d="M0 0 C8.57142857 -0.28571429 8.57142857 -0.28571429 12 2 C7.31034294 3.11658501 4.46236469 2.80619523 0 1 C0 0.67 0 0.34 0 0 Z " fill="#C5CEE0" transform="translate(1148,731)"/>
<path d="M0 0 C3.3 0 6.6 0 10 0 C10.33 0.66 10.66 1.32 11 2 C6.70700357 3.26264601 4.12168689 2.62950412 0 1 C0 0.67 0 0.34 0 0 Z " fill="#304168" transform="translate(1332,435)"/>
<path d="M0 0 C0.66 0 1.32 0 2 0 C1.5205537 4.21912747 0.83374881 6.79663178 -2 10 C-1.125 2.25 -1.125 2.25 0 0 Z " fill="#243A5E" transform="translate(1203,897)"/>
<path d="M0 0 C0.66 0.66 1.32 1.32 2 2 C1.01 4.64 0.02 7.28 -1 10 C-2.1875 8.375 -2.1875 8.375 -3 6 C-1.625 2.75 -1.625 2.75 0 0 Z " fill="#DCE3F0" transform="translate(1160,895)"/>
<path d="M0 0 C0.66 0.33 1.32 0.66 2 1 C1.34 4.3 0.68 7.6 0 11 C-0.33 11 -0.66 11 -1 11 C-1.02688151 9.35425434 -1.04634123 7.70838587 -1.0625 6.0625 C-1.07410156 5.14597656 -1.08570313 4.22945312 -1.09765625 3.28515625 C-1 1 -1 1 0 0 Z " fill="#2A3F64" transform="translate(1272,645)"/>
<path d="M0 0 C0.99 0.33 1.98 0.66 3 1 C3 1.66 3 2.32 3 3 C3.99 3.33 4.98 3.66 6 4 C6 5.65 6 7.3 6 9 C3.59927045 6.11912454 1.52708963 3.43595166 0 0 Z " fill="#779CBE" transform="translate(1400,1048)"/>
<path d="M0 0 C1.98 0 3.96 0 6 0 C5.6875 1.9375 5.6875 1.9375 5 4 C4.01 4.33 3.02 4.66 2 5 C1.34 3.35 0.68 1.7 0 0 Z " fill="#DBECFA" transform="translate(1214,982)"/>
<path d="M0 0 C0 0.99 0 1.98 0 3 C-2.87501211 5.07639763 -5.51375944 6.3543999 -9 7 C-6.24479785 4.04070881 -3.53372712 1.96318174 0 0 Z " fill="#759BBE" transform="translate(976,947)"/>
<path d="M0 0 C1.32 0.33 2.64 0.66 4 1 C1.36 2.65 -1.28 4.3 -4 6 C-3 2 -3 2 0 0 Z " fill="#D0E1F4" transform="translate(1258,948)"/>
<path d="M0 0 C0.99 0.33 1.98 0.66 3 1 C1.515 4.465 1.515 4.465 0 8 C-0.66 7.67 -1.32 7.34 -2 7 C-1.34 4.69 -0.68 2.38 0 0 Z " fill="#D9E1F0" transform="translate(1166,879)"/>
<path d="M0 0 C-0.804375 0.61875 -1.60875 1.2375 -2.4375 1.875 C-5.03874519 3.74164041 -5.03874519 3.74164041 -6 6 C-6.66 6 -7.32 6 -8 6 C-6.53781513 1.3697479 -6.53781513 1.3697479 -4 -0.375 C-2 -1 -2 -1 0 0 Z " fill="#DDE6F2" transform="translate(1243,821)"/>
<path d="M0 0 C0.66 0.33 1.32 0.66 2 1 C0.02 2.98 -1.96 4.96 -4 7 C-4.99 6.67 -5.98 6.34 -7 6 C-4.69 4.02 -2.38 2.04 0 0 Z " fill="#6A94BB" transform="translate(981,1043)"/>
<path d="M0 0 C2.75 -0.25 2.75 -0.25 6 0 C8.375 2 8.375 2 10 4 C8.51882199 3.71872579 7.04006751 3.42466268 5.5625 3.125 C4.73878906 2.96257812 3.91507813 2.80015625 3.06640625 2.6328125 C2.38449219 2.42398437 1.70257812 2.21515625 1 2 C0.67 1.34 0.34 0.68 0 0 Z " fill="#7BA2C4" transform="translate(1363,1025)"/>
<path d="M0 0 C0.66 0.33 1.32 0.66 2 1 C1.01 3.97 0.02 6.94 -1 10 C-1.33 10 -1.66 10 -2 10 C-2.17942163 6.05272412 -2.09350689 3.4019487 0 0 Z " fill="#304669" transform="translate(1214,871)"/>
<path d="M0 0 C3.63 0 7.26 0 11 0 C10.01 1.485 10.01 1.485 9 3 C8.01 3 7.02 3 6 3 C6 2.34 6 1.68 6 1 C4.02 1 2.04 1 0 1 C0 0.67 0 0.34 0 0 Z " fill="#E6ECF8" transform="translate(1163,841)"/>
<path d="M0 0 C1.875 0.125 1.875 0.125 4 1 C5.25 4.0625 5.25 4.0625 6 7 C3.95880212 5.38405168 1.95927063 3.7143618 0 2 C0 1.34 0 0.68 0 0 Z " fill="#DFEAF4" transform="translate(1122,712)"/>
<path d="M0 0 C3.36720387 1.39332574 4.9859524 2.9789286 7 6 C6.01 6 5.02 6 4 6 C0 1.54285714 0 1.54285714 0 0 Z " fill="#3B5173" transform="translate(1017,789)"/>
<path d="M0 0 C1.40416706 2.62111184 2.6169847 5.03163146 3 8 C2.34 8.99 1.68 9.98 1 11 C-0.28317892 7.15046324 -0.06643637 4.05261865 0 0 Z " fill="#243A5F" transform="translate(979,704)"/>
</svg>
